<?xml version="1.0" standalone="no"?>
<!DOCTYPE svg PUBLIC "-//W3C//DTD SVG 20010904//EN"
 "http://www.w3.org/TR/2001/REC-SVG-20010904/DTD/svg10.dtd">
<svg version="1.0" xmlns="http://www.w3.org/2000/svg"
 width="339.000000pt" height="735.000000pt" viewBox="0 0 339.000000 735.000000"
 preserveAspectRatio="xMidYMid meet">

<g transform="translate(0.000000,735.000000) scale(0.100000,-0.100000)"
fill="#000000" stroke="none">
<path d="M1657 7166 c-48 -18 -81 -48 -114 -103 -43 -73 -53 -133 -53 -323 0
-151 -3 -181 -20 -217 -11 -25 -15 -45 -9 -48 5 -4 9 -19 9 -36 0 -26 9 -34
33 -30 4 0 7 -3 7 -9 0 -6 3 -9 8 -8 4 1 19 -5 35 -12 32 -16 29 -39 -12 -84
-45 -51 -64 -64 -146 -105 -87 -43 -336 -142 -400 -160 -22 -6 -46 -15 -53
-19 -7 -5 -23 -60 -37 -123 -13 -63 -33 -141 -44 -174 -12 -33 -24 -84 -27
-113 -4 -29 -11 -55 -15 -58 -5 -3 -9 -12 -9 -21 0 -9 -10 -27 -21 -40 -19
-19 -20 -25 -9 -38 23 -27 11 -122 -55 -455 -8 -42 -15 -85 -15 -96 0 -11 -11
-56 -24 -100 -14 -43 -34 -142 -45 -219 -22 -150 -51 -496 -51 -608 0 -62 2
-69 21 -74 20 -6 21 -10 16 -77 -7 -77 0 -101 23 -86 18 12 43 13 36 2 -3 -5
-6 -41 -7 -80 -1 -40 -6 -75 -11 -78 -4 -3 -8 -13 -8 -23 0 -29 -21 -43 -36
-23 -12 16 -13 15 -14 -3 0 -12 -5 -26 -11 -32 -7 -7 -9 -20 -5 -30 6 -13 9
-14 15 -4 5 8 15 -11 26 -56 10 -37 26 -83 36 -101 11 -18 20 -45 20 -60 l1
-27 8 30 c7 27 8 26 9 -15 0 -26 -4 -51 -10 -57 -15 -15 -1 -53 19 -53 14 0
15 -2 2 -9 -8 -6 -17 -8 -21 -5 -5 2 -5 -68 -2 -157 4 -98 3 -160 -3 -156 -5
3 -10 -8 -10 -24 -1 -16 1 -27 5 -25 4 3 13 1 21 -5 12 -7 11 -9 -5 -9 -17 0
-17 -2 -5 -10 13 -9 13 -10 0 -11 -10 0 -8 -3 5 -9 17 -7 17 -9 3 -9 -14 -1
-18 -11 -19 -48 -2 -98 -9 -239 -14 -258 -7 -30 6 -43 56 -56 77 -21 75 -24
81 183 4 125 2 185 -5 190 -8 4 -7 10 1 20 7 9 14 117 20 305 5 160 13 296 16
302 4 6 17 11 30 11 28 0 46 18 46 45 0 30 30 115 41 115 4 0 33 -9 64 -21
l56 -21 -6 -56 c-6 -47 -2 -70 19 -128 14 -39 26 -86 26 -104 0 -18 7 -58 15
-89 8 -31 21 -109 30 -175 8 -65 22 -142 29 -170 8 -28 20 -91 26 -141 6 -49
17 -119 23 -155 15 -90 20 -296 8 -330 -7 -21 -5 -42 5 -77 11 -34 14 -84 12
-173 -3 -124 17 -270 57 -430 20 -79 62 -362 85 -568 11 -97 27 -198 35 -224
8 -26 15 -64 15 -85 0 -37 0 -37 16 -15 29 41 51 23 46 -38 -1 -8 4 -25 10
-37 14 -29 6 -37 -27 -29 -16 4 -25 13 -25 26 0 11 -5 20 -11 20 -5 0 -8 -4
-5 -8 2 -4 -4 -28 -16 -52 -27 -60 -34 -139 -15 -164 13 -17 30 -20 133 -23
153 -4 214 12 237 60 14 29 14 38 2 72 -8 22 -14 52 -15 68 0 15 -4 27 -9 27
-10 0 -51 92 -51 116 0 10 3 14 7 10 10 -9 51 132 59 203 4 40 1 75 -9 112 -8
30 -18 77 -22 104 -11 75 -7 550 5 710 6 85 10 400 9 800 -2 626 5 874 22 815
4 -14 7 -66 8 -116 1 -50 6 -115 11 -145 18 -98 35 -333 32 -449 0 -25 0 -65
0 -90 2 -62 -7 -122 -20 -147 -17 -31 -16 -35 22 -78 23 -25 35 -49 35 -69 0
-17 3 -67 6 -111 6 -78 -5 -239 -24 -340 -6 -33 -5 -68 2 -102 9 -43 8 -58 -6
-90 -13 -28 -18 -78 -22 -193 -3 -85 -11 -202 -17 -260 -18 -156 -14 -212 22
-330 30 -100 31 -112 28 -245 -3 -145 1 -163 41 -199 44 -40 230 -29 252 14
56 111 66 229 23 280 -13 15 -24 33 -24 38 0 6 -11 23 -24 39 -22 27 -66 116
-66 134 0 5 18 12 40 15 22 4 43 11 46 15 3 5 26 9 52 9 26 0 53 4 60 9 30 18
79 422 60 489 -7 25 -6 37 2 42 8 5 15 58 21 146 5 77 13 159 19 184 6 25 12
99 15 165 3 66 12 156 21 200 l16 79 -23 21 c-22 18 -24 27 -21 100 1 44 9
103 16 130 18 61 31 221 51 600 12 231 13 300 3 337 -6 26 -8 51 -4 55 10 10
39 -10 53 -37 6 -13 19 -25 28 -26 31 -5 139 32 149 52 6 10 16 22 21 26 6 5
6 8 -2 8 -10 0 26 73 59 121 9 13 7 37 -5 103 -10 48 -15 92 -11 98 3 5 23 8
43 5 20 -2 47 0 59 5 l24 8 -4 293 c-4 271 -7 301 -32 417 -15 69 -30 165 -33
213 -3 49 -9 83 -13 76 -18 -29 -39 21 -60 141 -6 36 -16 84 -21 107 -16 72
-20 70 93 71 90 2 106 5 137 26 52 36 121 103 121 118 0 8 -26 42 -57 76 l-58
63 -85 -14 c-47 -7 -100 -13 -117 -12 -18 2 -44 3 -58 4 -50 2 -24 26 48 43
93 23 254 73 341 106 51 19 74 34 87 57 26 41 24 52 -10 60 -23 5 -47 -4 -114
-40 -91 -49 -224 -101 -297 -115 -25 -5 -55 -12 -66 -16 -18 -5 -22 -1 -26 24
-2 17 2 70 9 119 13 84 15 385 3 401 -11 15 -64 33 -218 71 -187 47 -234 63
-287 98 -45 28 -95 73 -95 84 0 3 21 28 46 54 48 51 49 53 45 155 -2 46 -5 59
-11 45 -9 -23 -38 -50 -45 -43 -3 3 3 16 13 29 15 19 18 37 16 87 -3 56 -2 62
16 62 11 0 20 -5 20 -12 0 -6 3 -8 6 -5 4 4 1 13 -6 22 -10 12 -10 27 0 76 23
105 -20 275 -82 327 -45 38 -88 63 -98 57 -4 -3 -10 0 -12 5 -2 6 -21 12 -43
15 -35 4 -36 3 -10 -4 17 -5 23 -9 15 -11 -11 -1 -9 -4 5 -9 15 -6 8 -10 -33
-16 -60 -8 -77 0 -47 21 19 14 17 15 -25 13 -25 -1 -65 1 -90 5 -29 4 -59 1
-83 -8z m108 -26 c18 -7 19 -8 3 -15 -10 -4 -16 -11 -13 -15 5 -8 -52 -20 -97
-20 -16 0 -28 4 -28 8 0 13 77 49 105 50 6 0 19 -3 30 -8z m60 -223 c11 0 48
2 82 4 79 5 94 -8 101 -86 5 -57 22 -59 22 -2 0 46 17 30 35 -34 26 -93 10
-313 -25 -339 -13 -10 -50 -78 -50 -92 0 -9 -7 -21 -15 -28 -12 -10 -15 -10
-15 3 0 18 -55 67 -76 67 -17 0 -19 17 -2 22 7 3 -7 5 -31 6 -24 1 -49 6 -56
12 -16 13 -27 0 -14 -17 9 -10 8 -13 -4 -13 -9 0 -23 -7 -31 -16 -9 -8 -16
-12 -16 -7 0 4 -7 -1 -15 -11 -19 -25 -26 -17 -55 62 -21 59 -24 62 -55 62
-21 0 -35 6 -39 16 -11 28 -5 168 9 209 l13 40 2 -40 c4 -56 5 -58 13 -73 5
-7 12 -10 17 -7 5 3 11 1 15 -5 3 -5 17 -10 31 -10 17 0 23 -4 18 -12 -5 -8 4
-9 35 -4 39 6 41 5 31 -13 -15 -30 -12 -33 15 -15 20 13 25 13 25 3 0 -9 5 -7
12 5 8 14 8 24 0 37 -8 13 -8 20 -1 25 22 13 -9 24 -85 30 -60 4 -81 2 -88 -8
-5 -8 -6 13 -2 52 8 82 14 89 14 19 1 -67 15 -48 24 32 7 55 8 57 49 72 23 9
51 18 62 20 15 3 12 5 -8 6 -15 0 -44 -6 -63 -14 -35 -14 -35 -14 -29 8 13 42
40 56 87 44 24 -5 52 -10 63 -10z m312 -89 c-2 -13 -4 -5 -4 17 -1 22 1 32 4
23 2 -10 2 -28 0 -40z m-607 -118 c0 -5 -5 -10 -11 -10 -8 0 -7 -6 2 -17 13
-16 12 -17 -3 -4 -22 17 -23 41 -3 41 8 0 15 -4 15 -10z m0 -160 c0 -5 -2 -10
-4 -10 -3 0 -8 5 -11 10 -3 6 -1 10 4 10 6 0 11 -4 11 -10z m295 -170 c-3 -5
-10 -10 -16 -10 -5 0 -9 5 -9 10 0 6 7 10 16 10 8 0 12 -4 9 -10z m90 -20 c8
-13 -25 -13 -45 0 -12 8 -9 10 12 10 15 0 30 -4 33 -10z m-132 -23 c3 2 8 0
12 -6 3 -6 1 -11 -4 -11 -12 0 -15 -33 -4 -44 15 -15 10 -36 -8 -36 -23 0 -56
32 -70 67 -12 33 2 44 42 33 15 -5 30 -6 32 -3z m159 -18 c-4 -17 -74 -78 -89
-79 -7 0 -13 7 -13 15 0 8 5 15 10 15 6 0 10 11 10 25 0 14 -5 25 -11 25 -5 0
-7 5 -4 10 10 16 101 5 97 -11z m-787 -1375 c-29 -108 -28 -102 -56 -256 -19
-103 -53 -207 -65 -195 -3 3 6 50 19 104 14 54 33 139 42 188 9 50 27 117 40
150 13 33 27 78 31 100 4 22 9 33 11 24 2 -8 -8 -60 -22 -115z m1420 -498 c10
-143 -8 -146 -24 -3 -6 62 -14 132 -17 157 l-5 45 20 -48 c12 -29 22 -86 26
-151z m55 -801 c0 -9 10 -20 23 -26 23 -10 23 -12 10 -62 -16 -62 -28 -76 -78
-84 l-38 -6 5 61 c3 46 11 69 32 96 29 38 46 46 46 21z m-1873 -97 c-3 -8 -6
-5 -6 6 -1 11 2 17 5 13 3 -3 4 -12 1 -19z m-26 -37 c-7 -5 -11 -13 -7 -19 3
-6 2 -13 -4 -17 -6 -4 -10 5 -10 19 0 18 5 26 18 26 13 0 14 -2 3 -9z m-24
-223 c-3 -7 -5 -2 -5 12 0 14 2 19 5 13 2 -7 2 -19 0 -25z"/>
<path d="M2013 6706 c-9 -16 -18 -18 -54 -13 -23 3 -51 1 -60 -4 -24 -12 -45
-77 -30 -92 8 -8 11 -8 11 1 0 8 9 5 22 -8 31 -29 46 -25 18 5 l-23 25 42 0
c26 0 40 4 36 10 -3 6 3 10 13 10 11 0 22 7 26 15 3 8 13 15 23 15 11 0 14 3
7 8 -7 4 -13 16 -16 27 -4 19 -4 19 -15 1z"/>
<path d="M1999 6549 c-25 -35 -24 -47 1 -24 11 10 20 25 20 34 0 13 2 13 9 3
7 -11 9 -11 14 0 9 26 -23 16 -44 -13z"/>
<path d="M1590 6563 c0 -13 29 -38 35 -31 3 3 -4 13 -15 23 -11 10 -20 13 -20
8z"/>
<path d="M1814 6555 c-18 -15 -18 -15 9 -9 16 4 34 1 45 -7 14 -11 13 -9 -2 9
-23 26 -26 27 -52 7z"/>
<path d="M2046 6523 c-6 -14 -5 -15 5 -6 7 7 10 15 7 18 -3 3 -9 -2 -12 -12z"/>
<path d="M1783 6515 c-9 -10 -9 -16 -2 -20 14 -9 22 0 17 18 -2 13 -5 13 -15
2z"/>
<path d="M1880 6506 c0 -9 5 -16 10 -16 6 0 10 4 10 9 0 6 -4 13 -10 16 -5 3
-10 -1 -10 -9z"/>
<path d="M631 3594 c0 -11 3 -14 6 -6 3 7 2 16 -1 19 -3 4 -6 -2 -5 -13z"/>
<path d="M2620 3410 c-12 -8 -11 -10 7 -10 12 0 25 5 28 10 8 13 -15 13 -35 0z"/>
</g>
</svg>
