<?xml version="1.0" standalone="no"?>
<!DOCTYPE svg PUBLIC "-//W3C//DTD SVG 20010904//EN"
 "http://www.w3.org/TR/2001/REC-SVG-20010904/DTD/svg10.dtd">
<svg version="1.0" xmlns="http://www.w3.org/2000/svg"
 width="486.000000pt" height="513.000000pt" viewBox="0 0 486.000000 513.000000"
 preserveAspectRatio="xMidYMid meet">

<g transform="translate(0.000000,513.000000) scale(0.100000,-0.100000)"
fill="#000000" stroke="none">
<path d="M2136 3878 c-8 -18 -59 -152 -115 -298 -122 -323 -311 -820 -392
-1030 -59 -152 -163 -426 -200 -525 -11 -27 -19 -58 -19 -67 0 -10 -4 -18 -9
-18 -5 0 -12 -12 -17 -27 -10 -36 -9 -34 -21 -63 -24 -56 -133 -344 -133 -351
0 -4 140 -8 311 -8 l311 0 201 199 c110 110 204 200 209 200 4 0 8 9 8 19 0
13 8 21 23 23 12 2 22 9 22 17 0 8 8 17 17 20 17 6 437 410 751 723 98 98 184
181 191 185 8 4 80 73 162 152 162 158 164 158 -76 11 -201 -123 -251 -152
-255 -148 -6 6 -37 83 -95 238 -33 85 -112 295 -177 465 l-118 310 -283 3
-283 2 -13 -32z m374 -1008 c93 -254 102 -281 98 -285 -2 -2 -19 -12 -38 -23
-19 -11 -118 -70 -219 -131 -102 -61 -188 -111 -192 -111 -10 0 -7 8 98 300
150 418 166 461 174 453 5 -5 40 -96 79 -203z m-270 -908 c0 -5 -9 -17 -20
-27 -11 -10 -20 -31 -20 -47 0 -19 -5 -28 -16 -28 -24 0 -11 70 17 93 23 18
39 22 39 9z"/>
<path d="M3225 2507 c-11 -12 -111 -110 -222 -217 l-202 -196 60 -174 c33 -96
80 -231 103 -300 l43 -125 306 -2 c176 -1 309 2 312 7 3 5 -8 46 -26 92 -17
46 -46 124 -64 173 -18 50 -49 133 -68 185 -19 52 -58 158 -87 235 -28 77 -67
181 -86 230 -19 50 -34 96 -34 103 0 18 -13 14 -35 -11z m135 -445 c0 -5 -7
-9 -15 -9 -8 0 -12 4 -9 9 3 4 9 8 15 8 5 0 9 -4 9 -8z m7 -28 c-3 -3 -12 -4
-19 -1 -8 3 -5 6 6 6 11 1 17 -2 13 -5z m-113 -12 c2 -4 -4 -13 -14 -19 -15
-10 -17 -9 -13 8 5 20 18 25 27 11z m59 -13 c5 -17 3 -18 -11 -7 -14 11 -15
10 -9 -5 4 -11 3 -16 -3 -12 -14 9 -12 32 3 38 6 3 13 6 13 6 1 1 4 -8 7 -20z
m-70 -59 c-6 -22 12 -28 20 -7 4 9 6 9 6 0 2 -21 -20 -25 -40 -7 -15 13 -16
19 -7 26 21 13 26 9 21 -12z m-24 -60 c0 -10 -3 -8 -9 5 -12 27 -12 43 0 25 5
-8 9 -22 9 -30z m-19 -12 c0 -6 -8 -4 -17 3 -15 12 -16 12 -10 -5 6 -14 4 -17
-9 -12 -12 5 -15 2 -10 -9 3 -9 2 -13 -4 -10 -15 9 -12 26 7 40 18 14 43 9 43
-7z m-54 -49 c4 -8 0 -9 -15 -4 -12 3 -21 2 -21 -4 0 -5 8 -12 18 -15 13 -4
13 -4 -3 -3 -27 3 -33 37 -6 37 11 0 23 -5 27 -11z m-59 -38 c-3 -15 -1 -18
11 -14 10 4 13 2 8 -5 -4 -7 -13 -12 -21 -12 -18 0 -26 25 -12 39 16 16 20 14
14 -8z m-33 -37 c3 -8 2 -12 -4 -9 -6 3 -10 10 -10 16 0 14 7 11 14 -7z m-14
-41 c0 -28 -35 -9 -36 20 -1 26 0 27 17 11 11 -10 19 -23 19 -31z"/>
<path d="M3010 1726 c0 -9 5 -16 10 -16 6 0 10 4 10 9 0 6 -4 13 -10 16 -5 3
-10 -1 -10 -9z"/>
</g>
</svg>
