%TF.GenerationSoftware,KiCad,Pcbnew,(6.0.9)*%
%TF.CreationDate,2023-03-03T16:49:01+05:30*%
%TF.ProjectId,CTFWR,43544657-522e-46b6-9963-61645f706362,V0.1*%
%TF.SameCoordinates,Original*%
%TF.FileFunction,Copper,L2,Bot*%
%TF.FilePolarity,Positive*%
%FSLAX46Y46*%
G04 Gerber Fmt 4.6, Leading zero omitted, Abs format (unit mm)*
G04 Created by KiCad (PCBNEW (6.0.9)) date 2023-03-03 16:49:01*
%MOMM*%
%LPD*%
G01*
G04 APERTURE LIST*
%TA.AperFunction,ComponentPad*%
%ADD10R,1.600000X1.600000*%
%TD*%
%TA.AperFunction,ComponentPad*%
%ADD11C,1.600000*%
%TD*%
%TA.AperFunction,ComponentPad*%
%ADD12R,1.700000X1.700000*%
%TD*%
%TA.AperFunction,ComponentPad*%
%ADD13O,1.700000X1.700000*%
%TD*%
%TA.AperFunction,ComponentPad*%
%ADD14R,2.200000X2.200000*%
%TD*%
%TA.AperFunction,ComponentPad*%
%ADD15O,2.200000X2.200000*%
%TD*%
%TA.AperFunction,ComponentPad*%
%ADD16O,2.400000X2.400000*%
%TD*%
%TA.AperFunction,ComponentPad*%
%ADD17C,2.400000*%
%TD*%
%TA.AperFunction,Conductor*%
%ADD18C,0.250000*%
%TD*%
G04 APERTURE END LIST*
D10*
%TO.P,C1,1*%
%TO.N,Net-(C1-Pad1)*%
X58000000Y-49800000D03*
D11*
%TO.P,C1,2*%
%TO.N,Net-(C1-Pad2)*%
X58000000Y-47300000D03*
%TD*%
D12*
%TO.P,J1,1,Pin_1*%
%TO.N,Net-(D1-Pad2)*%
X27600000Y-53175000D03*
D13*
%TO.P,J1,2,Pin_2*%
%TO.N,Net-(C1-Pad2)*%
X27600000Y-55715000D03*
%TO.P,J1,3,Pin_3*%
%TO.N,Net-(D2-Pad2)*%
X27600000Y-58255000D03*
%TD*%
D14*
%TO.P,D2,1,K*%
%TO.N,Net-(C1-Pad1)*%
X42300000Y-58300000D03*
D15*
%TO.P,D2,2,A*%
%TO.N,Net-(D2-Pad2)*%
X32140000Y-58300000D03*
%TD*%
D14*
%TO.P,D1,1,K*%
%TO.N,Net-(C1-Pad1)*%
X42300000Y-53200000D03*
D15*
%TO.P,D1,2,A*%
%TO.N,Net-(D1-Pad2)*%
X32140000Y-53200000D03*
%TD*%
D16*
%TO.P,R1,2*%
%TO.N,Net-(C1-Pad2)*%
X48400000Y-45440000D03*
D17*
%TO.P,R1,1*%
%TO.N,Net-(C1-Pad1)*%
X48400000Y-65760000D03*
%TD*%
D18*
%TO.N,Net-(C1-Pad1)*%
X42300000Y-62200000D02*
X45860000Y-65760000D01*
X45860000Y-65760000D02*
X48400000Y-65760000D01*
X42300000Y-58300000D02*
X42300000Y-62200000D01*
%TO.N,Net-(C1-Pad2)*%
X43960000Y-45440000D02*
X48400000Y-45440000D01*
X27600000Y-55715000D02*
X33685000Y-55715000D01*
X33685000Y-55715000D02*
X43960000Y-45440000D01*
%TO.N,Net-(C1-Pad1)*%
X42300000Y-53200000D02*
X42300000Y-58300000D01*
%TO.N,Net-(C1-Pad2)*%
X60300000Y-49600000D02*
X60300000Y-59300000D01*
X58000000Y-47300000D02*
X60300000Y-49600000D01*
X60300000Y-59300000D02*
X60070000Y-59530000D01*
%TO.N,Net-(C1-Pad1)*%
X55545000Y-52255000D02*
X58000000Y-49800000D01*
X55545000Y-62070000D02*
X55545000Y-52255000D01*
X51855000Y-65760000D02*
X55545000Y-62070000D01*
X48400000Y-65760000D02*
X51855000Y-65760000D01*
%TO.N,Net-(C1-Pad2)*%
X56140000Y-45440000D02*
X58000000Y-47300000D01*
X48400000Y-45440000D02*
X56140000Y-45440000D01*
%TO.N,Net-(D2-Pad2)*%
X27600000Y-58255000D02*
X31495000Y-58255000D01*
%TO.N,Net-(D1-Pad2)*%
X27600000Y-53175000D02*
X32115000Y-53175000D01*
%TD*%
%TA.AperFunction,NonConductor*%
G36*
X64733621Y-43328502D02*
G01*
X64780114Y-43382158D01*
X64791500Y-43434500D01*
X64791500Y-67365500D01*
X64771498Y-67433621D01*
X64717842Y-67480114D01*
X64665500Y-67491500D01*
X49291917Y-67491500D01*
X49223796Y-67471498D01*
X49177303Y-67417842D01*
X49167199Y-67347568D01*
X49196693Y-67282988D01*
X49225614Y-67258356D01*
X49232667Y-67253992D01*
X49407047Y-67146082D01*
X49505428Y-67062797D01*
X49597289Y-66985031D01*
X49597291Y-66985029D01*
X49600862Y-66982006D01*
X49768295Y-66791084D01*
X49905669Y-66577512D01*
X49955114Y-66467749D01*
X50001330Y-66413855D01*
X50069996Y-66393500D01*
X51776233Y-66393500D01*
X51787416Y-66394027D01*
X51794909Y-66395702D01*
X51802835Y-66395453D01*
X51802836Y-66395453D01*
X51862986Y-66393562D01*
X51866945Y-66393500D01*
X51894856Y-66393500D01*
X51898791Y-66393003D01*
X51898856Y-66392995D01*
X51910693Y-66392062D01*
X51942951Y-66391048D01*
X51946970Y-66390922D01*
X51954889Y-66390673D01*
X51974343Y-66385021D01*
X51993700Y-66381013D01*
X52005930Y-66379468D01*
X52005931Y-66379468D01*
X52013797Y-66378474D01*
X52021168Y-66375555D01*
X52021170Y-66375555D01*
X52054912Y-66362196D01*
X52066142Y-66358351D01*
X52100983Y-66348229D01*
X52100984Y-66348229D01*
X52108593Y-66346018D01*
X52115412Y-66341985D01*
X52115417Y-66341983D01*
X52126028Y-66335707D01*
X52143776Y-66327012D01*
X52162617Y-66319552D01*
X52182987Y-66304753D01*
X52198387Y-66293564D01*
X52208307Y-66287048D01*
X52239535Y-66268580D01*
X52239538Y-66268578D01*
X52246362Y-66264542D01*
X52260683Y-66250221D01*
X52275717Y-66237380D01*
X52277432Y-66236134D01*
X52292107Y-66225472D01*
X52320298Y-66191395D01*
X52328288Y-66182616D01*
X55937253Y-62573652D01*
X55945539Y-62566112D01*
X55952018Y-62562000D01*
X55964985Y-62548192D01*
X55998643Y-62512349D01*
X56001398Y-62509507D01*
X56021135Y-62489770D01*
X56023615Y-62486573D01*
X56031320Y-62477551D01*
X56061586Y-62445321D01*
X56065405Y-62438375D01*
X56065407Y-62438372D01*
X56071348Y-62427566D01*
X56082199Y-62411047D01*
X56089758Y-62401301D01*
X56094614Y-62395041D01*
X56097759Y-62387772D01*
X56097762Y-62387768D01*
X56112174Y-62354463D01*
X56117391Y-62343813D01*
X56138695Y-62305060D01*
X56143733Y-62285437D01*
X56150137Y-62266734D01*
X56155033Y-62255420D01*
X56155033Y-62255419D01*
X56158181Y-62248145D01*
X56159420Y-62240322D01*
X56159423Y-62240312D01*
X56165099Y-62204476D01*
X56167505Y-62192856D01*
X56176528Y-62157711D01*
X56176528Y-62157710D01*
X56178500Y-62150030D01*
X56178500Y-62129776D01*
X56180051Y-62110065D01*
X56181980Y-62097886D01*
X56183220Y-62090057D01*
X56179059Y-62046038D01*
X56178500Y-62034181D01*
X56178500Y-52569594D01*
X56198502Y-52501473D01*
X56215405Y-52480499D01*
X57550499Y-51145405D01*
X57612811Y-51111379D01*
X57639594Y-51108500D01*
X58848134Y-51108500D01*
X58910316Y-51101745D01*
X59046705Y-51050615D01*
X59163261Y-50963261D01*
X59250615Y-50846705D01*
X59301745Y-50710316D01*
X59308500Y-50648134D01*
X59308500Y-49808594D01*
X59328502Y-49740473D01*
X59382158Y-49693980D01*
X59452432Y-49683876D01*
X59517012Y-49713370D01*
X59523595Y-49719499D01*
X59629595Y-49825499D01*
X59663621Y-49887811D01*
X59666500Y-49914594D01*
X59666500Y-58985405D01*
X59646498Y-59053526D01*
X59629595Y-59074500D01*
X59593865Y-59110230D01*
X59520386Y-59204959D01*
X59456819Y-59351855D01*
X59431780Y-59509943D01*
X59432526Y-59517835D01*
X59445735Y-59657566D01*
X59446843Y-59669292D01*
X59449526Y-59676746D01*
X59449527Y-59676748D01*
X59498375Y-59812429D01*
X59501061Y-59819889D01*
X59524085Y-59853767D01*
X59574875Y-59928502D01*
X59591028Y-59952271D01*
X59711090Y-60058120D01*
X59718149Y-60061717D01*
X59718151Y-60061718D01*
X59790199Y-60098428D01*
X59853704Y-60130785D01*
X59861443Y-60132515D01*
X59861446Y-60132516D01*
X60002168Y-60163972D01*
X60002171Y-60163972D01*
X60009909Y-60165702D01*
X60017835Y-60165453D01*
X60017836Y-60165453D01*
X60104493Y-60162729D01*
X60169889Y-60160673D01*
X60177501Y-60158461D01*
X60177504Y-60158461D01*
X60315980Y-60118230D01*
X60315982Y-60118229D01*
X60323593Y-60116018D01*
X60461362Y-60034542D01*
X60692258Y-59803647D01*
X60700537Y-59796113D01*
X60707018Y-59792000D01*
X60753645Y-59742347D01*
X60756399Y-59739506D01*
X60776135Y-59719770D01*
X60778615Y-59716573D01*
X60786320Y-59707551D01*
X60811159Y-59681100D01*
X60816586Y-59675321D01*
X60820405Y-59668375D01*
X60820407Y-59668372D01*
X60826348Y-59657566D01*
X60837199Y-59641047D01*
X60844758Y-59631301D01*
X60849614Y-59625041D01*
X60852759Y-59617772D01*
X60852762Y-59617768D01*
X60867174Y-59584463D01*
X60872391Y-59573813D01*
X60893695Y-59535060D01*
X60898733Y-59515437D01*
X60905137Y-59496734D01*
X60910033Y-59485420D01*
X60910033Y-59485419D01*
X60913181Y-59478145D01*
X60914420Y-59470322D01*
X60914423Y-59470312D01*
X60920099Y-59434476D01*
X60922505Y-59422856D01*
X60931528Y-59387711D01*
X60931528Y-59387710D01*
X60933500Y-59380030D01*
X60933500Y-59359776D01*
X60935051Y-59340065D01*
X60936980Y-59327886D01*
X60938220Y-59320057D01*
X60934059Y-59276038D01*
X60933500Y-59264181D01*
X60933500Y-49678767D01*
X60934027Y-49667584D01*
X60935702Y-49660091D01*
X60933562Y-49592014D01*
X60933500Y-49588055D01*
X60933500Y-49560144D01*
X60932995Y-49556144D01*
X60932062Y-49544301D01*
X60930922Y-49508029D01*
X60930673Y-49500110D01*
X60925022Y-49480658D01*
X60921014Y-49461306D01*
X60919467Y-49449063D01*
X60918474Y-49441203D01*
X60915556Y-49433832D01*
X60902200Y-49400097D01*
X60898355Y-49388870D01*
X60897721Y-49386687D01*
X60886018Y-49346407D01*
X60881984Y-49339585D01*
X60881981Y-49339579D01*
X60875706Y-49328968D01*
X60867010Y-49311218D01*
X60862472Y-49299756D01*
X60862469Y-49299751D01*
X60859552Y-49292383D01*
X60833573Y-49256625D01*
X60827057Y-49246707D01*
X60808575Y-49215457D01*
X60804542Y-49208637D01*
X60790218Y-49194313D01*
X60777376Y-49179278D01*
X60765472Y-49162893D01*
X60731406Y-49134711D01*
X60722627Y-49126722D01*
X59309152Y-47713247D01*
X59275126Y-47650935D01*
X59276540Y-47591541D01*
X59293543Y-47528087D01*
X59313498Y-47300000D01*
X59293543Y-47071913D01*
X59277686Y-47012734D01*
X59235707Y-46856067D01*
X59235706Y-46856065D01*
X59234284Y-46850757D01*
X59231961Y-46845775D01*
X59139849Y-46648238D01*
X59139846Y-46648233D01*
X59137523Y-46643251D01*
X59006198Y-46455700D01*
X58844300Y-46293802D01*
X58839792Y-46290645D01*
X58839789Y-46290643D01*
X58761611Y-46235902D01*
X58656749Y-46162477D01*
X58651767Y-46160154D01*
X58651762Y-46160151D01*
X58454225Y-46068039D01*
X58454224Y-46068039D01*
X58449243Y-46065716D01*
X58443935Y-46064294D01*
X58443933Y-46064293D01*
X58233402Y-46007881D01*
X58233400Y-46007881D01*
X58228087Y-46006457D01*
X58000000Y-45986502D01*
X57771913Y-46006457D01*
X57708458Y-46023460D01*
X57637482Y-46021770D01*
X57586753Y-45990848D01*
X56643652Y-45047747D01*
X56636112Y-45039461D01*
X56632000Y-45032982D01*
X56582348Y-44986356D01*
X56579507Y-44983602D01*
X56559770Y-44963865D01*
X56556573Y-44961385D01*
X56547551Y-44953680D01*
X56534116Y-44941064D01*
X56515321Y-44923414D01*
X56508375Y-44919595D01*
X56508372Y-44919593D01*
X56497566Y-44913652D01*
X56481047Y-44902801D01*
X56480583Y-44902441D01*
X56465041Y-44890386D01*
X56457772Y-44887241D01*
X56457768Y-44887238D01*
X56424463Y-44872826D01*
X56413813Y-44867609D01*
X56375060Y-44846305D01*
X56355437Y-44841267D01*
X56336734Y-44834863D01*
X56325420Y-44829967D01*
X56325419Y-44829967D01*
X56318145Y-44826819D01*
X56310322Y-44825580D01*
X56310312Y-44825577D01*
X56274476Y-44819901D01*
X56262856Y-44817495D01*
X56227711Y-44808472D01*
X56227710Y-44808472D01*
X56220030Y-44806500D01*
X56199776Y-44806500D01*
X56180065Y-44804949D01*
X56177534Y-44804548D01*
X56160057Y-44801780D01*
X56152165Y-44802526D01*
X56116039Y-44805941D01*
X56104181Y-44806500D01*
X50073063Y-44806500D01*
X50004942Y-44786498D01*
X49958449Y-44732842D01*
X49955630Y-44726167D01*
X49948084Y-44706762D01*
X49948083Y-44706760D01*
X49946391Y-44702409D01*
X49925866Y-44666498D01*
X49822702Y-44485997D01*
X49822700Y-44485995D01*
X49820383Y-44481940D01*
X49663171Y-44282517D01*
X49478209Y-44108523D01*
X49434483Y-44078189D01*
X49273393Y-43966437D01*
X49273390Y-43966435D01*
X49269561Y-43963779D01*
X49265384Y-43961719D01*
X49265377Y-43961715D01*
X49045996Y-43853528D01*
X49045992Y-43853527D01*
X49041810Y-43851464D01*
X48799960Y-43774047D01*
X48795355Y-43773297D01*
X48553935Y-43733980D01*
X48553934Y-43733980D01*
X48549323Y-43733229D01*
X48422364Y-43731567D01*
X48300083Y-43729966D01*
X48300080Y-43729966D01*
X48295406Y-43729905D01*
X48043787Y-43764149D01*
X47799993Y-43835208D01*
X47569380Y-43941522D01*
X47565471Y-43944085D01*
X47360928Y-44078189D01*
X47360923Y-44078193D01*
X47357015Y-44080755D01*
X47167562Y-44249848D01*
X47005183Y-44445087D01*
X46873447Y-44662182D01*
X46871638Y-44666496D01*
X46871637Y-44666498D01*
X46845333Y-44729226D01*
X46800544Y-44784312D01*
X46729136Y-44806500D01*
X44038763Y-44806500D01*
X44027579Y-44805973D01*
X44020091Y-44804299D01*
X44012168Y-44804548D01*
X43952033Y-44806438D01*
X43948075Y-44806500D01*
X43920144Y-44806500D01*
X43916229Y-44806995D01*
X43916225Y-44806995D01*
X43916167Y-44807003D01*
X43916138Y-44807006D01*
X43904296Y-44807939D01*
X43860110Y-44809327D01*
X43842744Y-44814372D01*
X43840658Y-44814978D01*
X43821306Y-44818986D01*
X43814235Y-44819880D01*
X43801203Y-44821526D01*
X43793834Y-44824443D01*
X43793832Y-44824444D01*
X43760097Y-44837800D01*
X43748869Y-44841645D01*
X43706407Y-44853982D01*
X43699585Y-44858016D01*
X43699579Y-44858019D01*
X43688968Y-44864294D01*
X43671218Y-44872990D01*
X43659756Y-44877528D01*
X43659751Y-44877531D01*
X43652383Y-44880448D01*
X43634970Y-44893099D01*
X43616625Y-44906427D01*
X43606707Y-44912943D01*
X43595463Y-44919593D01*
X43568637Y-44935458D01*
X43554313Y-44949782D01*
X43539281Y-44962621D01*
X43522893Y-44974528D01*
X43494712Y-45008593D01*
X43486722Y-45017373D01*
X33459500Y-55044595D01*
X33397188Y-55078621D01*
X33370405Y-55081500D01*
X28876805Y-55081500D01*
X28808684Y-55061498D01*
X28771013Y-55023940D01*
X28682822Y-54887617D01*
X28682820Y-54887614D01*
X28680014Y-54883277D01*
X28664638Y-54866379D01*
X28532798Y-54721488D01*
X28501746Y-54657642D01*
X28510141Y-54587143D01*
X28555317Y-54532375D01*
X28581761Y-54518706D01*
X28688297Y-54478767D01*
X28696705Y-54475615D01*
X28813261Y-54388261D01*
X28900615Y-54271705D01*
X28951745Y-54135316D01*
X28958500Y-54073134D01*
X28958500Y-53934500D01*
X28978502Y-53866379D01*
X29032158Y-53819886D01*
X29084500Y-53808500D01*
X30566830Y-53808500D01*
X30634951Y-53828502D01*
X30683239Y-53886282D01*
X30702384Y-53932502D01*
X30834672Y-54148376D01*
X30999102Y-54340898D01*
X31191624Y-54505328D01*
X31407498Y-54637616D01*
X31412068Y-54639509D01*
X31412072Y-54639511D01*
X31636836Y-54732611D01*
X31641409Y-54734505D01*
X31708513Y-54750615D01*
X31882784Y-54792454D01*
X31882790Y-54792455D01*
X31887597Y-54793609D01*
X32140000Y-54813474D01*
X32392403Y-54793609D01*
X32397210Y-54792455D01*
X32397216Y-54792454D01*
X32571487Y-54750615D01*
X32638591Y-54734505D01*
X32643164Y-54732611D01*
X32867928Y-54639511D01*
X32867932Y-54639509D01*
X32872502Y-54637616D01*
X33088376Y-54505328D01*
X33280898Y-54340898D01*
X33445328Y-54148376D01*
X33577616Y-53932502D01*
X33628980Y-53808500D01*
X33672611Y-53703164D01*
X33672612Y-53703162D01*
X33674505Y-53698591D01*
X33733609Y-53452403D01*
X33753474Y-53200000D01*
X33733609Y-52947597D01*
X33674505Y-52701409D01*
X33608269Y-52541500D01*
X33579511Y-52472072D01*
X33579509Y-52472068D01*
X33577616Y-52467498D01*
X33445328Y-52251624D01*
X33280898Y-52059102D01*
X33269265Y-52049166D01*
X33235045Y-52019940D01*
X33088376Y-51894672D01*
X32872502Y-51762384D01*
X32867932Y-51760491D01*
X32867928Y-51760489D01*
X32643164Y-51667389D01*
X32643162Y-51667388D01*
X32638591Y-51665495D01*
X32553968Y-51645179D01*
X32397216Y-51607546D01*
X32397210Y-51607545D01*
X32392403Y-51606391D01*
X32140000Y-51586526D01*
X31887597Y-51606391D01*
X31882790Y-51607545D01*
X31882784Y-51607546D01*
X31726032Y-51645179D01*
X31641409Y-51665495D01*
X31636838Y-51667388D01*
X31636836Y-51667389D01*
X31412072Y-51760489D01*
X31412068Y-51760491D01*
X31407498Y-51762384D01*
X31191624Y-51894672D01*
X31044955Y-52019940D01*
X31010736Y-52049166D01*
X30999102Y-52059102D01*
X30834672Y-52251624D01*
X30702384Y-52467498D01*
X30700489Y-52472072D01*
X30700169Y-52472701D01*
X30651422Y-52524317D01*
X30587901Y-52541500D01*
X29084500Y-52541500D01*
X29016379Y-52521498D01*
X28969886Y-52467842D01*
X28958500Y-52415500D01*
X28958500Y-52276866D01*
X28951745Y-52214684D01*
X28900615Y-52078295D01*
X28813261Y-51961739D01*
X28696705Y-51874385D01*
X28560316Y-51823255D01*
X28498134Y-51816500D01*
X26701866Y-51816500D01*
X26639684Y-51823255D01*
X26503295Y-51874385D01*
X26386739Y-51961739D01*
X26299385Y-52078295D01*
X26248255Y-52214684D01*
X26241500Y-52276866D01*
X26241500Y-54073134D01*
X26248255Y-54135316D01*
X26299385Y-54271705D01*
X26386739Y-54388261D01*
X26503295Y-54475615D01*
X26511704Y-54478767D01*
X26511705Y-54478768D01*
X26620451Y-54519535D01*
X26677216Y-54562176D01*
X26701916Y-54628738D01*
X26686709Y-54698087D01*
X26667316Y-54724568D01*
X26602443Y-54792454D01*
X26540629Y-54857138D01*
X26537715Y-54861410D01*
X26537714Y-54861411D01*
X26522798Y-54883277D01*
X26414743Y-55041680D01*
X26320688Y-55244305D01*
X26260989Y-55459570D01*
X26237251Y-55681695D01*
X26250110Y-55904715D01*
X26251247Y-55909761D01*
X26251248Y-55909767D01*
X26275304Y-56016508D01*
X26299222Y-56122639D01*
X26359014Y-56269890D01*
X26376662Y-56313351D01*
X26383266Y-56329616D01*
X26499987Y-56520088D01*
X26646250Y-56688938D01*
X26818126Y-56831632D01*
X26826866Y-56836739D01*
X26891445Y-56874476D01*
X26940169Y-56926114D01*
X26953240Y-56995897D01*
X26926509Y-57061669D01*
X26886055Y-57095027D01*
X26881228Y-57097540D01*
X26873607Y-57101507D01*
X26869474Y-57104610D01*
X26869471Y-57104612D01*
X26791895Y-57162858D01*
X26694965Y-57235635D01*
X26540629Y-57397138D01*
X26414743Y-57581680D01*
X26320688Y-57784305D01*
X26260989Y-57999570D01*
X26237251Y-58221695D01*
X26237548Y-58226848D01*
X26237548Y-58226851D01*
X26241766Y-58300000D01*
X26250110Y-58444715D01*
X26251247Y-58449761D01*
X26251248Y-58449767D01*
X26273267Y-58547469D01*
X26299222Y-58662639D01*
X26383266Y-58869616D01*
X26499987Y-59060088D01*
X26646250Y-59228938D01*
X26818126Y-59371632D01*
X27011000Y-59484338D01*
X27015825Y-59486180D01*
X27015826Y-59486181D01*
X27058457Y-59502460D01*
X27219692Y-59564030D01*
X27224760Y-59565061D01*
X27224763Y-59565062D01*
X27320123Y-59584463D01*
X27438597Y-59608567D01*
X27443772Y-59608757D01*
X27443774Y-59608757D01*
X27656673Y-59616564D01*
X27656677Y-59616564D01*
X27661837Y-59616753D01*
X27666957Y-59616097D01*
X27666959Y-59616097D01*
X27878288Y-59589025D01*
X27878289Y-59589025D01*
X27883416Y-59588368D01*
X27896432Y-59584463D01*
X28092429Y-59525661D01*
X28092434Y-59525659D01*
X28097384Y-59524174D01*
X28297994Y-59425896D01*
X28479860Y-59296173D01*
X28500065Y-59276039D01*
X28634435Y-59142137D01*
X28638096Y-59138489D01*
X28684077Y-59074500D01*
X28765435Y-58961277D01*
X28768453Y-58957077D01*
X28770746Y-58952437D01*
X28772446Y-58949608D01*
X28824674Y-58901518D01*
X28880451Y-58888500D01*
X30558546Y-58888500D01*
X30626667Y-58908502D01*
X30674954Y-58966281D01*
X30702384Y-59032502D01*
X30834672Y-59248376D01*
X30999102Y-59440898D01*
X31191624Y-59605328D01*
X31407498Y-59737616D01*
X31412068Y-59739509D01*
X31412072Y-59739511D01*
X31621955Y-59826447D01*
X31641409Y-59834505D01*
X31708513Y-59850615D01*
X31882784Y-59892454D01*
X31882790Y-59892455D01*
X31887597Y-59893609D01*
X32140000Y-59913474D01*
X32392403Y-59893609D01*
X32397210Y-59892455D01*
X32397216Y-59892454D01*
X32571487Y-59850615D01*
X32638591Y-59834505D01*
X32658045Y-59826447D01*
X32867928Y-59739511D01*
X32867932Y-59739509D01*
X32872502Y-59737616D01*
X33088376Y-59605328D01*
X33280898Y-59440898D01*
X33445328Y-59248376D01*
X33577616Y-59032502D01*
X33597125Y-58985405D01*
X33672611Y-58803164D01*
X33672612Y-58803162D01*
X33674505Y-58798591D01*
X33733609Y-58552403D01*
X33753474Y-58300000D01*
X33733609Y-58047597D01*
X33674505Y-57801409D01*
X33669488Y-57789297D01*
X33579511Y-57572072D01*
X33579509Y-57572068D01*
X33577616Y-57567498D01*
X33445328Y-57351624D01*
X33280898Y-57159102D01*
X33088376Y-56994672D01*
X32872502Y-56862384D01*
X32867932Y-56860491D01*
X32867928Y-56860489D01*
X32643164Y-56767389D01*
X32643162Y-56767388D01*
X32638591Y-56765495D01*
X32553968Y-56745179D01*
X32397216Y-56707546D01*
X32397210Y-56707545D01*
X32392403Y-56706391D01*
X32140000Y-56686526D01*
X31887597Y-56706391D01*
X31882790Y-56707545D01*
X31882784Y-56707546D01*
X31726032Y-56745179D01*
X31641409Y-56765495D01*
X31636838Y-56767388D01*
X31636836Y-56767389D01*
X31412072Y-56860489D01*
X31412068Y-56860491D01*
X31407498Y-56862384D01*
X31191624Y-56994672D01*
X30999102Y-57159102D01*
X30834672Y-57351624D01*
X30706161Y-57561335D01*
X30653513Y-57608966D01*
X30598728Y-57621500D01*
X28876805Y-57621500D01*
X28808684Y-57601498D01*
X28771013Y-57563940D01*
X28682822Y-57427617D01*
X28682820Y-57427614D01*
X28680014Y-57423277D01*
X28529670Y-57258051D01*
X28525619Y-57254852D01*
X28525615Y-57254848D01*
X28358414Y-57122800D01*
X28358410Y-57122798D01*
X28354359Y-57119598D01*
X28313053Y-57096796D01*
X28263084Y-57046364D01*
X28248312Y-56976921D01*
X28273428Y-56910516D01*
X28300780Y-56883909D01*
X28366910Y-56836739D01*
X28479860Y-56756173D01*
X28638096Y-56598489D01*
X28697594Y-56515689D01*
X28765435Y-56421277D01*
X28768453Y-56417077D01*
X28770746Y-56412437D01*
X28772446Y-56409608D01*
X28824674Y-56361518D01*
X28880451Y-56348500D01*
X33606233Y-56348500D01*
X33617416Y-56349027D01*
X33624909Y-56350702D01*
X33632835Y-56350453D01*
X33632836Y-56350453D01*
X33692986Y-56348562D01*
X33696945Y-56348500D01*
X33724856Y-56348500D01*
X33728791Y-56348003D01*
X33728856Y-56347995D01*
X33740693Y-56347062D01*
X33772951Y-56346048D01*
X33776970Y-56345922D01*
X33784889Y-56345673D01*
X33804343Y-56340021D01*
X33823700Y-56336013D01*
X33835930Y-56334468D01*
X33835931Y-56334468D01*
X33843797Y-56333474D01*
X33851168Y-56330555D01*
X33851170Y-56330555D01*
X33884912Y-56317196D01*
X33896142Y-56313351D01*
X33930983Y-56303229D01*
X33930984Y-56303229D01*
X33938593Y-56301018D01*
X33945412Y-56296985D01*
X33945417Y-56296983D01*
X33956028Y-56290707D01*
X33973776Y-56282012D01*
X33992617Y-56274552D01*
X34028387Y-56248564D01*
X34038307Y-56242048D01*
X34069535Y-56223580D01*
X34069538Y-56223578D01*
X34076362Y-56219542D01*
X34090683Y-56205221D01*
X34105717Y-56192380D01*
X34115694Y-56185131D01*
X34122107Y-56180472D01*
X34150298Y-56146395D01*
X34158288Y-56137616D01*
X44185499Y-46110405D01*
X44247811Y-46076379D01*
X44274594Y-46073500D01*
X46725453Y-46073500D01*
X46793574Y-46093502D01*
X46836445Y-46139862D01*
X46921254Y-46297699D01*
X46955025Y-46360551D01*
X46957820Y-46364294D01*
X46957822Y-46364297D01*
X47104171Y-46560282D01*
X47104176Y-46560288D01*
X47106963Y-46564020D01*
X47110272Y-46567300D01*
X47110277Y-46567306D01*
X47208859Y-46665031D01*
X47287307Y-46742797D01*
X47291069Y-46745555D01*
X47291072Y-46745558D01*
X47396764Y-46823054D01*
X47492094Y-46892953D01*
X47496229Y-46895129D01*
X47496233Y-46895131D01*
X47578079Y-46938192D01*
X47716827Y-47011191D01*
X47956568Y-47094912D01*
X48206050Y-47142278D01*
X48326532Y-47147011D01*
X48455125Y-47152064D01*
X48455130Y-47152064D01*
X48459793Y-47152247D01*
X48558774Y-47141407D01*
X48707569Y-47125112D01*
X48707575Y-47125111D01*
X48712222Y-47124602D01*
X48821680Y-47095784D01*
X48953273Y-47061138D01*
X48957793Y-47059948D01*
X49077638Y-47008459D01*
X49186807Y-46961557D01*
X49186810Y-46961555D01*
X49191110Y-46959708D01*
X49195090Y-46957245D01*
X49195094Y-46957243D01*
X49403064Y-46828547D01*
X49403066Y-46828545D01*
X49407047Y-46826082D01*
X49505428Y-46742797D01*
X49597289Y-46665031D01*
X49597291Y-46665029D01*
X49600862Y-46662006D01*
X49768295Y-46471084D01*
X49778191Y-46455700D01*
X49879820Y-46297699D01*
X49905669Y-46257512D01*
X49955114Y-46147749D01*
X50001330Y-46093855D01*
X50069996Y-46073500D01*
X55825406Y-46073500D01*
X55893527Y-46093502D01*
X55914501Y-46110405D01*
X56690848Y-46886752D01*
X56724874Y-46949064D01*
X56723459Y-47008459D01*
X56707882Y-47066591D01*
X56707881Y-47066598D01*
X56706457Y-47071913D01*
X56686502Y-47300000D01*
X56706457Y-47528087D01*
X56707880Y-47533398D01*
X56707881Y-47533402D01*
X56723460Y-47591541D01*
X56765716Y-47749243D01*
X56768039Y-47754224D01*
X56768039Y-47754225D01*
X56860151Y-47951762D01*
X56860154Y-47951767D01*
X56862477Y-47956749D01*
X56993802Y-48144300D01*
X57139502Y-48290000D01*
X57173528Y-48352312D01*
X57168463Y-48423127D01*
X57125916Y-48479963D01*
X57089263Y-48497132D01*
X57089684Y-48498255D01*
X56953295Y-48549385D01*
X56836739Y-48636739D01*
X56749385Y-48753295D01*
X56698255Y-48889684D01*
X56691500Y-48951866D01*
X56691500Y-50160405D01*
X56671498Y-50228526D01*
X56654595Y-50249500D01*
X55152747Y-51751348D01*
X55144461Y-51758888D01*
X55137982Y-51763000D01*
X55132557Y-51768777D01*
X55091357Y-51812651D01*
X55088602Y-51815493D01*
X55068865Y-51835230D01*
X55066385Y-51838427D01*
X55058682Y-51847447D01*
X55028414Y-51879679D01*
X55024595Y-51886625D01*
X55024593Y-51886628D01*
X55018652Y-51897434D01*
X55007801Y-51913953D01*
X54995386Y-51929959D01*
X54992241Y-51937228D01*
X54992238Y-51937232D01*
X54977826Y-51970537D01*
X54972609Y-51981187D01*
X54951305Y-52019940D01*
X54949334Y-52027615D01*
X54949334Y-52027616D01*
X54946267Y-52039562D01*
X54939863Y-52058266D01*
X54931819Y-52076855D01*
X54930580Y-52084678D01*
X54930577Y-52084688D01*
X54924901Y-52120524D01*
X54922495Y-52132144D01*
X54911500Y-52174970D01*
X54911500Y-52195224D01*
X54909949Y-52214934D01*
X54906780Y-52234943D01*
X54907526Y-52242835D01*
X54910941Y-52278961D01*
X54911500Y-52290819D01*
X54911500Y-61755406D01*
X54891498Y-61823527D01*
X54874595Y-61844501D01*
X51629500Y-65089595D01*
X51567188Y-65123621D01*
X51540405Y-65126500D01*
X50073063Y-65126500D01*
X50004942Y-65106498D01*
X49958449Y-65052842D01*
X49955630Y-65046167D01*
X49948084Y-65026762D01*
X49948083Y-65026760D01*
X49946391Y-65022409D01*
X49925866Y-64986498D01*
X49822702Y-64805997D01*
X49822700Y-64805995D01*
X49820383Y-64801940D01*
X49663171Y-64602517D01*
X49478209Y-64428523D01*
X49434483Y-64398189D01*
X49273393Y-64286437D01*
X49273390Y-64286435D01*
X49269561Y-64283779D01*
X49265384Y-64281719D01*
X49265377Y-64281715D01*
X49045996Y-64173528D01*
X49045992Y-64173527D01*
X49041810Y-64171464D01*
X48799960Y-64094047D01*
X48795355Y-64093297D01*
X48553935Y-64053980D01*
X48553934Y-64053980D01*
X48549323Y-64053229D01*
X48422365Y-64051567D01*
X48300083Y-64049966D01*
X48300080Y-64049966D01*
X48295406Y-64049905D01*
X48043787Y-64084149D01*
X47799993Y-64155208D01*
X47569380Y-64261522D01*
X47565471Y-64264085D01*
X47360928Y-64398189D01*
X47360923Y-64398193D01*
X47357015Y-64400755D01*
X47167562Y-64569848D01*
X47005183Y-64765087D01*
X46873447Y-64982182D01*
X46871638Y-64986496D01*
X46871637Y-64986498D01*
X46845333Y-65049226D01*
X46800544Y-65104312D01*
X46729136Y-65126500D01*
X46174595Y-65126500D01*
X46106474Y-65106498D01*
X46085500Y-65089595D01*
X42970405Y-61974500D01*
X42936379Y-61912188D01*
X42933500Y-61885405D01*
X42933500Y-60034500D01*
X42953502Y-59966379D01*
X43007158Y-59919886D01*
X43059500Y-59908500D01*
X43448134Y-59908500D01*
X43510316Y-59901745D01*
X43646705Y-59850615D01*
X43763261Y-59763261D01*
X43850615Y-59646705D01*
X43901745Y-59510316D01*
X43908500Y-59448134D01*
X43908500Y-57151866D01*
X43901745Y-57089684D01*
X43850615Y-56953295D01*
X43763261Y-56836739D01*
X43646705Y-56749385D01*
X43510316Y-56698255D01*
X43448134Y-56691500D01*
X43059500Y-56691500D01*
X42991379Y-56671498D01*
X42944886Y-56617842D01*
X42933500Y-56565500D01*
X42933500Y-54934500D01*
X42953502Y-54866379D01*
X43007158Y-54819886D01*
X43059500Y-54808500D01*
X43448134Y-54808500D01*
X43510316Y-54801745D01*
X43646705Y-54750615D01*
X43763261Y-54663261D01*
X43850615Y-54546705D01*
X43901745Y-54410316D01*
X43908500Y-54348134D01*
X43908500Y-52051866D01*
X43901745Y-51989684D01*
X43850615Y-51853295D01*
X43763261Y-51736739D01*
X43646705Y-51649385D01*
X43510316Y-51598255D01*
X43448134Y-51591500D01*
X41151866Y-51591500D01*
X41089684Y-51598255D01*
X40953295Y-51649385D01*
X40836739Y-51736739D01*
X40749385Y-51853295D01*
X40698255Y-51989684D01*
X40691500Y-52051866D01*
X40691500Y-54348134D01*
X40698255Y-54410316D01*
X40749385Y-54546705D01*
X40836739Y-54663261D01*
X40953295Y-54750615D01*
X41089684Y-54801745D01*
X41151866Y-54808500D01*
X41540500Y-54808500D01*
X41608621Y-54828502D01*
X41655114Y-54882158D01*
X41666500Y-54934500D01*
X41666500Y-56565500D01*
X41646498Y-56633621D01*
X41592842Y-56680114D01*
X41540500Y-56691500D01*
X41151866Y-56691500D01*
X41089684Y-56698255D01*
X40953295Y-56749385D01*
X40836739Y-56836739D01*
X40749385Y-56953295D01*
X40698255Y-57089684D01*
X40691500Y-57151866D01*
X40691500Y-59448134D01*
X40698255Y-59510316D01*
X40749385Y-59646705D01*
X40836739Y-59763261D01*
X40953295Y-59850615D01*
X41089684Y-59901745D01*
X41151866Y-59908500D01*
X41540500Y-59908500D01*
X41608621Y-59928502D01*
X41655114Y-59982158D01*
X41666500Y-60034500D01*
X41666500Y-62121233D01*
X41665973Y-62132416D01*
X41664298Y-62139909D01*
X41664547Y-62147835D01*
X41664547Y-62147836D01*
X41666438Y-62207986D01*
X41666500Y-62211945D01*
X41666500Y-62239856D01*
X41666997Y-62243790D01*
X41666997Y-62243791D01*
X41667005Y-62243856D01*
X41667938Y-62255693D01*
X41669327Y-62299889D01*
X41672846Y-62312001D01*
X41674978Y-62319339D01*
X41678987Y-62338700D01*
X41681526Y-62358797D01*
X41684445Y-62366168D01*
X41684445Y-62366170D01*
X41697804Y-62399912D01*
X41701649Y-62411142D01*
X41709560Y-62438372D01*
X41713982Y-62453593D01*
X41718015Y-62460412D01*
X41718017Y-62460417D01*
X41724293Y-62471028D01*
X41732988Y-62488776D01*
X41740448Y-62507617D01*
X41745110Y-62514033D01*
X41745110Y-62514034D01*
X41766436Y-62543387D01*
X41772952Y-62553307D01*
X41795458Y-62591362D01*
X41809779Y-62605683D01*
X41822619Y-62620716D01*
X41834528Y-62637107D01*
X41840634Y-62642158D01*
X41868605Y-62665298D01*
X41877384Y-62673288D01*
X45356343Y-66152247D01*
X45363887Y-66160537D01*
X45368000Y-66167018D01*
X45373777Y-66172443D01*
X45417667Y-66213658D01*
X45420509Y-66216413D01*
X45440230Y-66236134D01*
X45443425Y-66238612D01*
X45452447Y-66246318D01*
X45484679Y-66276586D01*
X45491628Y-66280406D01*
X45502432Y-66286346D01*
X45518956Y-66297199D01*
X45534959Y-66309613D01*
X45575543Y-66327176D01*
X45586173Y-66332383D01*
X45624940Y-66353695D01*
X45632617Y-66355666D01*
X45632622Y-66355668D01*
X45644558Y-66358732D01*
X45663266Y-66365137D01*
X45681855Y-66373181D01*
X45689683Y-66374421D01*
X45689690Y-66374423D01*
X45725524Y-66380099D01*
X45737144Y-66382505D01*
X45768959Y-66390673D01*
X45779970Y-66393500D01*
X45800224Y-66393500D01*
X45819934Y-66395051D01*
X45839943Y-66398220D01*
X45847835Y-66397474D01*
X45866580Y-66395702D01*
X45883962Y-66394059D01*
X45895819Y-66393500D01*
X46725453Y-66393500D01*
X46793574Y-66413502D01*
X46836445Y-66459862D01*
X46955025Y-66680551D01*
X46957820Y-66684294D01*
X46957822Y-66684297D01*
X47104171Y-66880282D01*
X47104176Y-66880288D01*
X47106963Y-66884020D01*
X47110272Y-66887300D01*
X47110277Y-66887306D01*
X47208859Y-66985031D01*
X47287307Y-67062797D01*
X47291069Y-67065555D01*
X47291072Y-67065558D01*
X47396764Y-67143054D01*
X47492094Y-67212953D01*
X47496229Y-67215129D01*
X47496233Y-67215131D01*
X47570096Y-67253992D01*
X47621068Y-67303411D01*
X47637231Y-67372544D01*
X47613452Y-67439440D01*
X47557281Y-67482860D01*
X47511428Y-67491500D01*
X25434500Y-67491500D01*
X25366379Y-67471498D01*
X25319886Y-67417842D01*
X25308500Y-67365500D01*
X25308500Y-43434500D01*
X25328502Y-43366379D01*
X25382158Y-43319886D01*
X25434500Y-43308500D01*
X64665500Y-43308500D01*
X64733621Y-43328502D01*
G37*
%TD.AperFunction*%
M02*
