%TF.GenerationSoftware,KiCad,Pcbnew,7.0.1*%
%TF.CreationDate,2023-06-07T16:33:43+05:30*%
%TF.ProjectId,Expt. No.9,45787074-2e20-44e6-9f2e-392e6b696361,rev?*%
%TF.SameCoordinates,Original*%
%TF.FileFunction,Copper,L2,Bot*%
%TF.FilePolarity,Positive*%
%FSLAX46Y46*%
G04 Gerber Fmt 4.6, Leading zero omitted, Abs format (unit mm)*
G04 Created by KiCad (PCBNEW 7.0.1) date 2023-06-07 16:33:43*
%MOMM*%
%LPD*%
G01*
G04 APERTURE LIST*
%TA.AperFunction,ComponentPad*%
%ADD10R,2.600000X2.600000*%
%TD*%
%TA.AperFunction,ComponentPad*%
%ADD11C,2.600000*%
%TD*%
%TA.AperFunction,ComponentPad*%
%ADD12C,1.600000*%
%TD*%
%TA.AperFunction,ComponentPad*%
%ADD13R,1.600000X1.600000*%
%TD*%
%TA.AperFunction,ComponentPad*%
%ADD14C,1.560000*%
%TD*%
%TA.AperFunction,ComponentPad*%
%ADD15R,1.560000X1.560000*%
%TD*%
%TA.AperFunction,ComponentPad*%
%ADD16O,1.600000X1.600000*%
%TD*%
%TA.AperFunction,Conductor*%
%ADD17C,0.250000*%
%TD*%
G04 APERTURE END LIST*
D10*
%TO.P,J1,1,Pin_1*%
%TO.N,GND*%
X96600000Y-80615000D03*
D11*
%TO.P,J1,2,Pin_2*%
%TO.N,Net-(J1-Pin_2)*%
X96600000Y-85695000D03*
%TO.P,J1,3,Pin_3*%
%TO.N,Net-(J1-Pin_3)*%
X96600000Y-90775000D03*
%TD*%
D12*
%TO.P,C1,2*%
%TO.N,GND*%
X110947349Y-90500000D03*
D13*
%TO.P,C1,1*%
%TO.N,Net-(J1-Pin_3)*%
X107447349Y-90500000D03*
%TD*%
D14*
%TO.P,RV1,3,3*%
%TO.N,GND*%
X98100000Y-67700000D03*
%TO.P,RV1,2,2*%
%TO.N,Net-(U1-+)*%
X95600000Y-72700000D03*
D15*
%TO.P,RV1,1,1*%
%TO.N,Net-(J1-Pin_2)*%
X93100000Y-67700000D03*
%TD*%
D13*
%TO.P,U1,1,BYPASS*%
%TO.N,unconnected-(U1-BYPASS-Pad1)*%
X121025000Y-67000000D03*
D16*
%TO.P,U1,2,+*%
%TO.N,Net-(U1-+)*%
X118485000Y-67000000D03*
%TO.P,U1,3,GND*%
%TO.N,GND*%
X115945000Y-67000000D03*
%TO.P,U1,4,GND*%
X113405000Y-67000000D03*
%TO.P,U1,5,GND*%
X110865000Y-67000000D03*
%TO.P,U1,6,-*%
X108325000Y-67000000D03*
%TO.P,U1,7,GND*%
X105785000Y-67000000D03*
%TO.P,U1,8*%
%TO.N,Net-(C2-Pad1)*%
X105785000Y-74620000D03*
%TO.P,U1,9,NC*%
%TO.N,unconnected-(U1-NC-Pad9)*%
X108325000Y-74620000D03*
%TO.P,U1,10,GND*%
%TO.N,GND*%
X110865000Y-74620000D03*
%TO.P,U1,11,GND*%
X113405000Y-74620000D03*
%TO.P,U1,12,GND*%
X115945000Y-74620000D03*
%TO.P,U1,13,NC*%
%TO.N,unconnected-(U1-NC-Pad13)*%
X118485000Y-74620000D03*
%TO.P,U1,14,VS*%
%TO.N,Net-(J1-Pin_3)*%
X121025000Y-74620000D03*
%TD*%
D10*
%TO.P,J2,1,Pin_1*%
%TO.N,Net-(J2-Pin_1)*%
X127905000Y-90945000D03*
D11*
%TO.P,J2,2,Pin_2*%
%TO.N,GND*%
X127905000Y-85865000D03*
%TD*%
D12*
%TO.P,C2,2*%
%TO.N,Net-(J2-Pin_1)*%
X118400000Y-84000000D03*
D13*
%TO.P,C2,1*%
%TO.N,Net-(C2-Pad1)*%
X114900000Y-84000000D03*
%TD*%
D17*
%TO.N,Net-(C2-Pad1)*%
X116809009Y-84000000D02*
X114900000Y-84000000D01*
X123700000Y-73600000D02*
X123700000Y-78100000D01*
X122709009Y-78100000D02*
X116809009Y-84000000D01*
X123595000Y-73495000D02*
X123700000Y-73600000D01*
X106910000Y-73495000D02*
X123595000Y-73495000D01*
X123700000Y-78100000D02*
X122709009Y-78100000D01*
X105785000Y-74620000D02*
X106910000Y-73495000D01*
%TO.N,Net-(U1-+)*%
X102425000Y-65875000D02*
X95600000Y-72700000D01*
X117360000Y-65875000D02*
X102425000Y-65875000D01*
X118485000Y-67000000D02*
X117360000Y-65875000D01*
%TO.N,Net-(J2-Pin_1)*%
X129530000Y-85191902D02*
X129530000Y-89320000D01*
X128338098Y-84000000D02*
X129530000Y-85191902D01*
X129530000Y-89320000D02*
X127905000Y-90945000D01*
X118400000Y-84000000D02*
X128338098Y-84000000D01*
%TO.N,GND*%
X123270000Y-90500000D02*
X127905000Y-85865000D01*
X110947349Y-90500000D02*
X123270000Y-90500000D01*
%TO.N,Net-(J1-Pin_3)*%
X107447349Y-88197651D02*
X121025000Y-74620000D01*
X107447349Y-90500000D02*
X107447349Y-88197651D01*
X96600000Y-90775000D02*
X107172349Y-90775000D01*
X107172349Y-90775000D02*
X107447349Y-90500000D01*
%TO.N,Net-(J1-Pin_2)*%
X93100000Y-67700000D02*
X93100000Y-82195000D01*
X93100000Y-82195000D02*
X96600000Y-85695000D01*
%TD*%
%TA.AperFunction,Conductor*%
%TO.N,GND*%
G36*
X132048296Y-62687393D02*
G01*
X132048858Y-62687506D01*
X132096949Y-62687506D01*
X132103032Y-62687655D01*
X132105509Y-62687776D01*
X132252700Y-62695007D01*
X132474090Y-62706611D01*
X132485729Y-62707776D01*
X132661574Y-62733860D01*
X132662629Y-62734023D01*
X132855393Y-62764553D01*
X132866089Y-62766735D01*
X133043528Y-62811181D01*
X133045368Y-62811658D01*
X133228852Y-62860822D01*
X133238498Y-62863835D01*
X133412716Y-62926171D01*
X133415311Y-62927133D01*
X133590593Y-62994418D01*
X133599144Y-62998075D01*
X133767450Y-63077678D01*
X133770669Y-63079259D01*
X133936947Y-63163981D01*
X133944348Y-63168079D01*
X134104557Y-63264105D01*
X134108311Y-63266447D01*
X134113904Y-63270079D01*
X134264286Y-63367739D01*
X134270616Y-63372136D01*
X134420905Y-63483597D01*
X134425067Y-63486823D01*
X134569335Y-63603649D01*
X134574570Y-63608135D01*
X134672100Y-63696532D01*
X134713322Y-63733893D01*
X134717730Y-63738090D01*
X134848908Y-63869268D01*
X134853105Y-63873676D01*
X134978874Y-64012441D01*
X134983362Y-64017678D01*
X135100156Y-64161906D01*
X135103388Y-64166075D01*
X135214888Y-64316415D01*
X135219285Y-64322747D01*
X135320496Y-64478598D01*
X135322860Y-64482385D01*
X135418931Y-64642671D01*
X135423057Y-64650124D01*
X135507682Y-64816210D01*
X135509292Y-64819489D01*
X135588942Y-64987897D01*
X135592611Y-64996475D01*
X135659793Y-65171490D01*
X135660781Y-65174154D01*
X135723176Y-65348537D01*
X135726199Y-65358217D01*
X135775261Y-65541318D01*
X135775770Y-65543282D01*
X135820273Y-65720947D01*
X135822462Y-65731679D01*
X135852895Y-65923826D01*
X135853080Y-65925030D01*
X135879226Y-66101294D01*
X135880398Y-66112999D01*
X135891900Y-66332481D01*
X135891797Y-66332486D01*
X135891922Y-66332885D01*
X135892629Y-66347266D01*
X135898963Y-66476204D01*
X135899351Y-66484086D01*
X135899500Y-66490171D01*
X135899500Y-93397128D01*
X135899368Y-93402855D01*
X135891530Y-93572381D01*
X135891513Y-93572738D01*
X135880898Y-93788815D01*
X135879858Y-93799862D01*
X135853609Y-93988039D01*
X135853456Y-93989103D01*
X135824373Y-94185159D01*
X135822421Y-94195354D01*
X135778119Y-94383716D01*
X135777697Y-94385456D01*
X135730398Y-94574281D01*
X135727686Y-94583557D01*
X135665712Y-94768461D01*
X135664892Y-94770829D01*
X135599832Y-94952662D01*
X135596514Y-94960975D01*
X135517429Y-95140083D01*
X135516090Y-95143013D01*
X135433854Y-95316887D01*
X135430088Y-95324209D01*
X135334601Y-95495642D01*
X135332631Y-95499051D01*
X135233979Y-95663643D01*
X135229919Y-95669972D01*
X135118881Y-95832066D01*
X135116180Y-95835856D01*
X135002024Y-95989778D01*
X134997823Y-95995128D01*
X134872181Y-96146433D01*
X134868662Y-96150489D01*
X134740053Y-96292387D01*
X134735856Y-96296795D01*
X134596795Y-96435856D01*
X134592387Y-96440053D01*
X134450489Y-96568662D01*
X134446433Y-96572181D01*
X134295128Y-96697823D01*
X134289778Y-96702024D01*
X134135856Y-96816180D01*
X134132066Y-96818881D01*
X133969972Y-96929919D01*
X133963643Y-96933979D01*
X133799051Y-97032631D01*
X133795642Y-97034601D01*
X133624209Y-97130088D01*
X133616887Y-97133854D01*
X133443013Y-97216090D01*
X133440083Y-97217429D01*
X133260975Y-97296514D01*
X133252662Y-97299832D01*
X133070829Y-97364892D01*
X133068461Y-97365712D01*
X132883557Y-97427686D01*
X132874281Y-97430398D01*
X132685456Y-97477697D01*
X132683716Y-97478119D01*
X132495354Y-97522421D01*
X132485159Y-97524373D01*
X132289103Y-97553456D01*
X132288039Y-97553609D01*
X132099862Y-97579858D01*
X132088815Y-97580898D01*
X131872908Y-97591504D01*
X131872552Y-97591521D01*
X131706871Y-97599182D01*
X131702854Y-97599368D01*
X131697128Y-97599500D01*
X92102872Y-97599500D01*
X92097145Y-97599368D01*
X92092885Y-97599171D01*
X91927446Y-97591521D01*
X91927090Y-97591504D01*
X91711183Y-97580898D01*
X91700136Y-97579858D01*
X91511959Y-97553609D01*
X91510895Y-97553456D01*
X91314839Y-97524373D01*
X91304644Y-97522421D01*
X91116282Y-97478119D01*
X91114542Y-97477697D01*
X90925717Y-97430398D01*
X90916441Y-97427686D01*
X90731537Y-97365712D01*
X90729169Y-97364892D01*
X90547336Y-97299832D01*
X90539023Y-97296514D01*
X90359915Y-97217429D01*
X90356985Y-97216090D01*
X90183111Y-97133854D01*
X90175789Y-97130088D01*
X90004356Y-97034601D01*
X90000947Y-97032631D01*
X89971714Y-97015109D01*
X89836343Y-96933971D01*
X89830026Y-96929919D01*
X89667932Y-96818881D01*
X89664142Y-96816180D01*
X89510220Y-96702024D01*
X89504870Y-96697823D01*
X89353565Y-96572181D01*
X89349509Y-96568662D01*
X89207611Y-96440053D01*
X89203203Y-96435856D01*
X89064142Y-96296795D01*
X89059945Y-96292387D01*
X88931336Y-96150489D01*
X88927817Y-96146433D01*
X88802175Y-95995128D01*
X88797974Y-95989778D01*
X88683818Y-95835856D01*
X88681117Y-95832066D01*
X88570067Y-95669954D01*
X88566038Y-95663673D01*
X88467348Y-95499018D01*
X88465397Y-95495642D01*
X88369910Y-95324209D01*
X88366144Y-95316887D01*
X88283908Y-95143013D01*
X88282569Y-95140083D01*
X88264201Y-95098483D01*
X88203475Y-94960954D01*
X88200175Y-94952685D01*
X88135102Y-94770818D01*
X88134286Y-94768461D01*
X88072312Y-94583557D01*
X88069600Y-94574281D01*
X88022266Y-94385312D01*
X88021917Y-94383874D01*
X87977573Y-94195337D01*
X87975629Y-94185180D01*
X87946492Y-93988757D01*
X87946446Y-93988438D01*
X87920137Y-93799838D01*
X87919102Y-93788839D01*
X87908495Y-93572952D01*
X87900641Y-93403059D01*
X87900511Y-93396920D01*
X87910368Y-90775000D01*
X94794450Y-90775000D01*
X94814616Y-91044100D01*
X94814617Y-91044103D01*
X94874666Y-91307195D01*
X94973257Y-91558398D01*
X95108185Y-91792102D01*
X95276439Y-92003085D01*
X95474259Y-92186635D01*
X95697226Y-92338651D01*
X95940359Y-92455738D01*
X96198228Y-92535280D01*
X96465071Y-92575500D01*
X96734929Y-92575500D01*
X97001772Y-92535280D01*
X97259641Y-92455738D01*
X97502775Y-92338651D01*
X97725741Y-92186635D01*
X97923561Y-92003085D01*
X98091815Y-91792102D01*
X98226743Y-91558398D01*
X98257828Y-91479195D01*
X98284488Y-91437918D01*
X98325089Y-91410237D01*
X98373255Y-91400500D01*
X106064559Y-91400500D01*
X106113372Y-91410512D01*
X106154302Y-91438931D01*
X106180739Y-91481164D01*
X106203553Y-91542331D01*
X106289803Y-91657546D01*
X106405018Y-91743796D01*
X106539866Y-91794091D01*
X106599476Y-91800500D01*
X108295221Y-91800499D01*
X108354832Y-91794091D01*
X108489680Y-91743796D01*
X108604895Y-91657546D01*
X108663675Y-91579026D01*
X110221875Y-91579026D01*
X110294864Y-91630133D01*
X110501022Y-91726266D01*
X110720746Y-91785141D01*
X110947349Y-91804966D01*
X111173951Y-91785141D01*
X111393675Y-91726266D01*
X111599829Y-91630134D01*
X111672821Y-91579025D01*
X110947350Y-90853553D01*
X110947349Y-90853553D01*
X110221875Y-91579025D01*
X110221875Y-91579026D01*
X108663675Y-91579026D01*
X108691145Y-91542331D01*
X108741440Y-91407483D01*
X108747849Y-91347873D01*
X108747848Y-90499999D01*
X109642382Y-90499999D01*
X109662207Y-90726602D01*
X109721082Y-90946326D01*
X109817215Y-91152484D01*
X109868321Y-91225471D01*
X109868323Y-91225472D01*
X110593795Y-90500001D01*
X111300902Y-90500001D01*
X112026374Y-91225472D01*
X112077483Y-91152480D01*
X112173615Y-90946326D01*
X112232490Y-90726602D01*
X112252315Y-90499999D01*
X112232490Y-90273397D01*
X112173615Y-90053673D01*
X112077482Y-89847515D01*
X112026374Y-89774526D01*
X111300902Y-90500000D01*
X111300902Y-90500001D01*
X110593795Y-90500001D01*
X110593795Y-90500000D01*
X109868322Y-89774526D01*
X109868322Y-89774527D01*
X109817214Y-89847516D01*
X109721082Y-90053672D01*
X109662207Y-90273397D01*
X109642382Y-90499999D01*
X108747848Y-90499999D01*
X108747848Y-89652128D01*
X108741440Y-89592517D01*
X108691145Y-89457669D01*
X108663674Y-89420973D01*
X110221875Y-89420973D01*
X110947349Y-90146446D01*
X110947350Y-90146446D01*
X111672821Y-89420974D01*
X111672820Y-89420972D01*
X111599833Y-89369866D01*
X111393675Y-89273733D01*
X111173951Y-89214858D01*
X110947349Y-89195033D01*
X110720746Y-89214858D01*
X110501021Y-89273733D01*
X110294865Y-89369865D01*
X110221876Y-89420973D01*
X110221875Y-89420973D01*
X108663674Y-89420973D01*
X108604895Y-89342454D01*
X108489680Y-89256204D01*
X108354832Y-89205909D01*
X108295222Y-89199500D01*
X108295218Y-89199500D01*
X108196849Y-89199500D01*
X108134849Y-89182887D01*
X108089462Y-89137500D01*
X108072849Y-89075500D01*
X108072849Y-88508103D01*
X108082288Y-88460650D01*
X108109168Y-88420422D01*
X110696685Y-85832905D01*
X113387821Y-83141768D01*
X113437182Y-83111520D01*
X113494898Y-83106978D01*
X113548385Y-83129133D01*
X113585985Y-83173156D01*
X113599500Y-83229451D01*
X113599500Y-84847869D01*
X113605909Y-84907484D01*
X113611819Y-84923328D01*
X113656204Y-85042331D01*
X113742454Y-85157546D01*
X113857669Y-85243796D01*
X113992517Y-85294091D01*
X114052127Y-85300500D01*
X115747872Y-85300499D01*
X115807483Y-85294091D01*
X115942331Y-85243796D01*
X116057546Y-85157546D01*
X116143796Y-85042331D01*
X116194091Y-84907483D01*
X116200500Y-84847873D01*
X116200500Y-84749500D01*
X116217113Y-84687500D01*
X116262500Y-84642113D01*
X116324500Y-84625500D01*
X116726265Y-84625500D01*
X116746771Y-84627764D01*
X116749674Y-84627672D01*
X116749676Y-84627673D01*
X116816881Y-84625561D01*
X116820777Y-84625500D01*
X116848358Y-84625500D01*
X116848359Y-84625500D01*
X116852328Y-84624998D01*
X116863974Y-84624080D01*
X116907636Y-84622709D01*
X116926868Y-84617120D01*
X116945927Y-84613174D01*
X116952205Y-84612381D01*
X116965801Y-84610664D01*
X117006416Y-84594582D01*
X117017453Y-84590803D01*
X117059399Y-84578618D01*
X117076638Y-84568422D01*
X117094096Y-84559868D01*
X117094518Y-84559700D01*
X117096892Y-84558760D01*
X117158227Y-84551043D01*
X117215666Y-84573897D01*
X117254933Y-84621642D01*
X117255431Y-84622709D01*
X117269432Y-84652735D01*
X117399953Y-84839140D01*
X117560859Y-85000046D01*
X117747264Y-85130567D01*
X117747265Y-85130567D01*
X117747266Y-85130568D01*
X117953504Y-85226739D01*
X118173308Y-85285635D01*
X118400000Y-85305468D01*
X118626692Y-85285635D01*
X118846496Y-85226739D01*
X119052734Y-85130568D01*
X119239139Y-85000047D01*
X119400047Y-84839139D01*
X119512612Y-84678377D01*
X119556931Y-84639511D01*
X119614188Y-84625500D01*
X126333693Y-84625500D01*
X126399665Y-84644506D01*
X126445413Y-84695698D01*
X126456913Y-84763383D01*
X126430640Y-84826813D01*
X126413599Y-84848181D01*
X126278708Y-85081821D01*
X126180146Y-85332950D01*
X126120113Y-85595973D01*
X126099952Y-85864999D01*
X126120113Y-86134026D01*
X126180146Y-86397049D01*
X126278708Y-86648178D01*
X126413598Y-86881816D01*
X126467295Y-86949150D01*
X127817318Y-85599127D01*
X127872905Y-85567033D01*
X127937093Y-85567033D01*
X127992680Y-85599127D01*
X128170871Y-85777318D01*
X128202965Y-85832905D01*
X128202965Y-85897093D01*
X128170871Y-85952680D01*
X126819848Y-87303702D01*
X127002479Y-87428217D01*
X127245542Y-87545270D01*
X127503339Y-87624791D01*
X127770109Y-87665000D01*
X128039891Y-87665000D01*
X128306660Y-87624791D01*
X128564457Y-87545270D01*
X128726698Y-87467140D01*
X128787453Y-87455055D01*
X128846472Y-87473866D01*
X128889028Y-87518879D01*
X128904500Y-87578860D01*
X128904500Y-89009547D01*
X128895060Y-89057002D01*
X128868177Y-89097232D01*
X128857223Y-89108185D01*
X128816996Y-89135062D01*
X128769546Y-89144500D01*
X126557130Y-89144500D01*
X126497515Y-89150909D01*
X126362669Y-89201204D01*
X126247454Y-89287454D01*
X126161204Y-89402668D01*
X126126432Y-89495896D01*
X126110909Y-89537517D01*
X126105228Y-89590362D01*
X126104500Y-89597130D01*
X126104500Y-92292869D01*
X126109422Y-92338651D01*
X126110909Y-92352483D01*
X126161204Y-92487331D01*
X126247454Y-92602546D01*
X126362669Y-92688796D01*
X126497517Y-92739091D01*
X126557127Y-92745500D01*
X129252872Y-92745499D01*
X129312483Y-92739091D01*
X129447331Y-92688796D01*
X129562546Y-92602546D01*
X129648796Y-92487331D01*
X129699091Y-92352483D01*
X129705500Y-92292873D01*
X129705499Y-90080451D01*
X129714938Y-90032999D01*
X129741815Y-89992774D01*
X129913789Y-89820800D01*
X129929885Y-89807906D01*
X129931873Y-89805787D01*
X129931877Y-89805786D01*
X129977948Y-89756723D01*
X129980566Y-89754023D01*
X130000120Y-89734471D01*
X130002581Y-89731298D01*
X130010156Y-89722427D01*
X130040062Y-89690582D01*
X130049712Y-89673027D01*
X130060400Y-89656757D01*
X130072673Y-89640936D01*
X130090026Y-89600832D01*
X130095157Y-89590362D01*
X130116197Y-89552092D01*
X130121175Y-89532699D01*
X130127481Y-89514282D01*
X130129018Y-89510728D01*
X130135438Y-89495896D01*
X130142272Y-89452745D01*
X130144635Y-89441331D01*
X130155500Y-89399019D01*
X130155500Y-89378984D01*
X130157027Y-89359585D01*
X130159740Y-89342454D01*
X130160160Y-89339804D01*
X130156050Y-89296325D01*
X130155500Y-89284656D01*
X130155500Y-85274646D01*
X130157764Y-85254139D01*
X130155561Y-85184029D01*
X130155500Y-85180134D01*
X130155500Y-85152555D01*
X130154997Y-85148574D01*
X130154080Y-85136921D01*
X130152709Y-85093275D01*
X130147120Y-85074042D01*
X130143174Y-85054984D01*
X130140664Y-85035108D01*
X130124588Y-84994506D01*
X130120804Y-84983455D01*
X130114881Y-84963070D01*
X130108618Y-84941512D01*
X130098414Y-84924257D01*
X130089861Y-84906797D01*
X130082486Y-84888171D01*
X130082486Y-84888170D01*
X130056808Y-84852827D01*
X130050401Y-84843073D01*
X130048075Y-84839140D01*
X130028170Y-84805482D01*
X130014006Y-84791318D01*
X130001367Y-84776519D01*
X129989595Y-84760315D01*
X129955941Y-84732475D01*
X129947299Y-84724611D01*
X128838900Y-83616211D01*
X128826004Y-83600113D01*
X128774873Y-83552098D01*
X128772076Y-83549387D01*
X128752568Y-83529879D01*
X128749388Y-83527412D01*
X128740522Y-83519839D01*
X128708680Y-83489938D01*
X128691122Y-83480285D01*
X128674862Y-83469604D01*
X128659034Y-83457327D01*
X128618949Y-83439980D01*
X128608459Y-83434841D01*
X128570189Y-83413802D01*
X128550789Y-83408821D01*
X128532382Y-83402519D01*
X128513995Y-83394562D01*
X128470856Y-83387729D01*
X128459422Y-83385361D01*
X128417117Y-83374500D01*
X128397082Y-83374500D01*
X128377684Y-83372973D01*
X128370260Y-83371797D01*
X128357903Y-83369840D01*
X128357902Y-83369840D01*
X128324849Y-83372964D01*
X128314423Y-83373950D01*
X128302754Y-83374500D01*
X119614188Y-83374500D01*
X119556931Y-83360489D01*
X119512613Y-83321623D01*
X119400046Y-83160859D01*
X119239140Y-82999953D01*
X119043848Y-82863210D01*
X119044950Y-82861634D01*
X119011375Y-82834682D01*
X118987640Y-82780729D01*
X118991497Y-82721912D01*
X119022074Y-82671524D01*
X122931780Y-78761819D01*
X122972009Y-78734939D01*
X123019462Y-78725500D01*
X123629151Y-78725500D01*
X123652385Y-78727696D01*
X123660412Y-78729227D01*
X123715759Y-78725745D01*
X123723545Y-78725500D01*
X123739351Y-78725500D01*
X123743582Y-78724965D01*
X123755036Y-78723517D01*
X123762738Y-78722788D01*
X123818138Y-78719304D01*
X123825902Y-78716781D01*
X123848676Y-78711689D01*
X123856792Y-78710664D01*
X123908396Y-78690231D01*
X123915671Y-78687612D01*
X123968441Y-78670467D01*
X123975337Y-78666090D01*
X123996132Y-78655494D01*
X124003732Y-78652486D01*
X124048624Y-78619869D01*
X124055026Y-78615517D01*
X124101877Y-78585786D01*
X124107461Y-78579838D01*
X124124979Y-78564394D01*
X124131587Y-78559594D01*
X124131588Y-78559591D01*
X124131590Y-78559591D01*
X124166938Y-78516861D01*
X124172080Y-78511027D01*
X124210062Y-78470582D01*
X124213999Y-78463418D01*
X124227119Y-78444114D01*
X124232324Y-78437823D01*
X124255942Y-78387630D01*
X124259467Y-78380711D01*
X124286197Y-78332092D01*
X124288228Y-78324177D01*
X124296132Y-78302223D01*
X124299614Y-78294826D01*
X124310010Y-78240325D01*
X124311698Y-78232768D01*
X124325500Y-78179019D01*
X124325500Y-78170849D01*
X124327696Y-78147615D01*
X124329227Y-78139587D01*
X124325745Y-78084241D01*
X124325500Y-78076455D01*
X124325500Y-73682740D01*
X124327763Y-73662236D01*
X124325561Y-73592144D01*
X124325500Y-73588250D01*
X124325500Y-73560657D01*
X124325500Y-73560650D01*
X124324995Y-73556653D01*
X124324080Y-73545023D01*
X124322709Y-73501372D01*
X124317119Y-73482134D01*
X124313174Y-73463082D01*
X124310664Y-73443208D01*
X124310663Y-73443207D01*
X124294578Y-73402581D01*
X124290805Y-73391560D01*
X124278617Y-73349610D01*
X124269601Y-73334365D01*
X124268421Y-73332369D01*
X124259863Y-73314902D01*
X124252486Y-73296268D01*
X124226798Y-73260912D01*
X124220409Y-73251184D01*
X124198170Y-73213579D01*
X124184005Y-73199414D01*
X124171369Y-73184620D01*
X124159595Y-73168414D01*
X124159594Y-73168413D01*
X124125935Y-73140568D01*
X124117305Y-73132714D01*
X124095802Y-73111211D01*
X124082906Y-73095113D01*
X124031775Y-73047098D01*
X124028978Y-73044387D01*
X124009470Y-73024879D01*
X124006290Y-73022412D01*
X123997424Y-73014839D01*
X123965582Y-72984938D01*
X123948024Y-72975285D01*
X123931764Y-72964604D01*
X123915936Y-72952327D01*
X123875851Y-72934980D01*
X123865361Y-72929841D01*
X123827091Y-72908802D01*
X123807691Y-72903821D01*
X123789284Y-72897519D01*
X123770897Y-72889562D01*
X123727758Y-72882729D01*
X123716324Y-72880361D01*
X123674019Y-72869500D01*
X123653984Y-72869500D01*
X123634586Y-72867973D01*
X123627162Y-72866797D01*
X123614805Y-72864840D01*
X123614804Y-72864840D01*
X123588484Y-72867328D01*
X123571325Y-72868950D01*
X123559656Y-72869500D01*
X106992740Y-72869500D01*
X106972236Y-72867236D01*
X106902144Y-72869439D01*
X106898250Y-72869500D01*
X106870648Y-72869500D01*
X106866653Y-72870004D01*
X106855029Y-72870918D01*
X106811368Y-72872290D01*
X106792128Y-72877880D01*
X106773081Y-72881825D01*
X106753209Y-72884335D01*
X106712599Y-72900413D01*
X106701554Y-72904194D01*
X106659611Y-72916380D01*
X106642369Y-72926578D01*
X106624897Y-72935138D01*
X106606266Y-72942514D01*
X106570938Y-72968181D01*
X106561180Y-72974591D01*
X106523579Y-72996829D01*
X106509410Y-73010998D01*
X106494622Y-73023628D01*
X106478413Y-73035405D01*
X106450572Y-73069058D01*
X106442711Y-73077696D01*
X106199821Y-73320586D01*
X106144234Y-73352680D01*
X106080047Y-73352680D01*
X106011690Y-73334364D01*
X105784999Y-73314531D01*
X105558310Y-73334364D01*
X105338502Y-73393261D01*
X105132264Y-73489432D01*
X104945859Y-73619953D01*
X104784953Y-73780859D01*
X104654432Y-73967264D01*
X104558261Y-74173502D01*
X104499364Y-74393310D01*
X104479531Y-74620000D01*
X104499364Y-74846689D01*
X104558261Y-75066497D01*
X104654432Y-75272735D01*
X104784953Y-75459140D01*
X104945859Y-75620046D01*
X105132264Y-75750567D01*
X105132265Y-75750567D01*
X105132266Y-75750568D01*
X105338504Y-75846739D01*
X105558308Y-75905635D01*
X105785000Y-75925468D01*
X106011692Y-75905635D01*
X106231496Y-75846739D01*
X106437734Y-75750568D01*
X106624139Y-75620047D01*
X106785047Y-75459139D01*
X106915568Y-75272734D01*
X106942618Y-75214724D01*
X106988375Y-75162549D01*
X107055000Y-75143129D01*
X107121625Y-75162549D01*
X107167382Y-75214725D01*
X107194431Y-75272733D01*
X107324953Y-75459140D01*
X107485859Y-75620046D01*
X107672264Y-75750567D01*
X107672265Y-75750567D01*
X107672266Y-75750568D01*
X107878504Y-75846739D01*
X108098308Y-75905635D01*
X108325000Y-75925468D01*
X108551692Y-75905635D01*
X108771496Y-75846739D01*
X108977734Y-75750568D01*
X109164139Y-75620047D01*
X109325047Y-75459139D01*
X109455568Y-75272734D01*
X109482893Y-75214134D01*
X109528649Y-75161959D01*
X109595274Y-75142539D01*
X109661899Y-75161958D01*
X109707657Y-75214133D01*
X109734866Y-75272482D01*
X109865341Y-75458819D01*
X110026180Y-75619658D01*
X110212519Y-75750134D01*
X110418673Y-75846266D01*
X110614999Y-75898871D01*
X110615000Y-75898872D01*
X110615000Y-74870000D01*
X111115000Y-74870000D01*
X111115000Y-75898871D01*
X111311326Y-75846266D01*
X111517480Y-75750134D01*
X111703819Y-75619658D01*
X111864658Y-75458819D01*
X111995135Y-75272479D01*
X112022618Y-75213543D01*
X112068375Y-75161367D01*
X112135000Y-75141947D01*
X112201625Y-75161367D01*
X112247382Y-75213543D01*
X112274864Y-75272479D01*
X112405341Y-75458819D01*
X112566180Y-75619658D01*
X112752519Y-75750134D01*
X112958673Y-75846266D01*
X113154999Y-75898871D01*
X113155000Y-75898872D01*
X113155000Y-74870000D01*
X113655000Y-74870000D01*
X113655000Y-75898871D01*
X113851326Y-75846266D01*
X114057480Y-75750134D01*
X114243819Y-75619658D01*
X114404658Y-75458819D01*
X114535135Y-75272479D01*
X114562618Y-75213543D01*
X114608375Y-75161367D01*
X114675000Y-75141947D01*
X114741625Y-75161367D01*
X114787382Y-75213543D01*
X114814864Y-75272479D01*
X114945341Y-75458819D01*
X115106180Y-75619658D01*
X115292519Y-75750134D01*
X115498673Y-75846266D01*
X115694999Y-75898871D01*
X115695000Y-75898872D01*
X115695000Y-74870000D01*
X113655000Y-74870000D01*
X113155000Y-74870000D01*
X111115000Y-74870000D01*
X110615000Y-74870000D01*
X110615000Y-74494000D01*
X110631613Y-74432000D01*
X110677000Y-74386613D01*
X110739000Y-74370000D01*
X116071000Y-74370000D01*
X116133000Y-74386613D01*
X116178387Y-74432000D01*
X116195000Y-74494000D01*
X116195000Y-75898871D01*
X116391326Y-75846266D01*
X116597480Y-75750134D01*
X116783819Y-75619658D01*
X116944658Y-75458819D01*
X117075135Y-75272479D01*
X117102342Y-75214135D01*
X117148098Y-75161959D01*
X117214723Y-75142539D01*
X117281348Y-75161958D01*
X117327105Y-75214132D01*
X117354432Y-75272733D01*
X117354433Y-75272736D01*
X117484953Y-75459140D01*
X117645859Y-75620046D01*
X117832264Y-75750567D01*
X117832265Y-75750567D01*
X117832266Y-75750568D01*
X118038504Y-75846739D01*
X118258308Y-75905635D01*
X118409436Y-75918857D01*
X118484999Y-75925468D01*
X118484999Y-75925467D01*
X118485000Y-75925468D01*
X118500193Y-75924138D01*
X118529099Y-75921610D01*
X118588357Y-75930995D01*
X118636273Y-75967102D01*
X118661629Y-76021477D01*
X118658489Y-76081392D01*
X118627588Y-76132819D01*
X107063557Y-87696850D01*
X107047459Y-87709747D01*
X106999445Y-87760876D01*
X106996740Y-87763668D01*
X106977223Y-87783185D01*
X106974764Y-87786356D01*
X106967191Y-87795223D01*
X106937284Y-87827071D01*
X106927634Y-87844625D01*
X106916958Y-87860879D01*
X106904675Y-87876714D01*
X106887324Y-87916809D01*
X106882187Y-87927295D01*
X106861151Y-87965558D01*
X106856170Y-87984960D01*
X106849869Y-88003362D01*
X106841910Y-88021753D01*
X106835077Y-88064893D01*
X106832709Y-88076325D01*
X106821849Y-88118629D01*
X106821849Y-88138667D01*
X106820322Y-88158066D01*
X106817189Y-88177845D01*
X106821299Y-88221326D01*
X106821849Y-88232995D01*
X106821849Y-89075501D01*
X106805236Y-89137501D01*
X106759849Y-89182888D01*
X106697849Y-89199501D01*
X106599477Y-89199501D01*
X106569671Y-89202705D01*
X106539864Y-89205909D01*
X106405018Y-89256204D01*
X106289803Y-89342454D01*
X106203553Y-89457668D01*
X106153258Y-89592515D01*
X106153258Y-89592517D01*
X106148053Y-89640936D01*
X106146849Y-89652131D01*
X106146849Y-90025500D01*
X106130236Y-90087500D01*
X106084849Y-90132887D01*
X106022849Y-90149500D01*
X98373255Y-90149500D01*
X98325089Y-90139763D01*
X98284488Y-90112082D01*
X98257827Y-90070803D01*
X98251104Y-90053673D01*
X98226743Y-89991602D01*
X98091815Y-89757898D01*
X97923561Y-89546915D01*
X97908242Y-89532701D01*
X97725743Y-89363366D01*
X97668205Y-89324137D01*
X97502775Y-89211349D01*
X97259641Y-89094262D01*
X97180098Y-89069726D01*
X97001771Y-89014719D01*
X96734929Y-88974500D01*
X96465071Y-88974500D01*
X96198228Y-89014719D01*
X95940359Y-89094262D01*
X95697228Y-89211347D01*
X95474257Y-89363366D01*
X95276439Y-89546915D01*
X95108184Y-89757899D01*
X94973257Y-89991601D01*
X94874666Y-90242804D01*
X94814616Y-90505899D01*
X94794450Y-90775000D01*
X87910368Y-90775000D01*
X87994003Y-68527869D01*
X91819500Y-68527869D01*
X91825909Y-68587483D01*
X91876204Y-68722331D01*
X91962454Y-68837546D01*
X92077669Y-68923796D01*
X92212517Y-68974091D01*
X92272127Y-68980500D01*
X92350500Y-68980500D01*
X92412500Y-68997113D01*
X92457887Y-69042500D01*
X92474500Y-69104500D01*
X92474500Y-82112256D01*
X92472235Y-82132762D01*
X92474439Y-82202873D01*
X92474500Y-82206768D01*
X92474500Y-82234349D01*
X92475003Y-82238334D01*
X92475918Y-82249967D01*
X92477290Y-82293626D01*
X92482879Y-82312860D01*
X92486825Y-82331916D01*
X92489335Y-82351792D01*
X92505414Y-82392404D01*
X92509197Y-82403451D01*
X92521382Y-82445391D01*
X92531580Y-82462635D01*
X92540136Y-82480100D01*
X92547514Y-82498732D01*
X92547515Y-82498733D01*
X92573180Y-82534059D01*
X92579593Y-82543822D01*
X92601826Y-82581416D01*
X92601829Y-82581419D01*
X92601830Y-82581420D01*
X92615995Y-82595585D01*
X92628627Y-82610375D01*
X92640406Y-82626587D01*
X92674058Y-82654426D01*
X92682699Y-82662289D01*
X94904222Y-84883813D01*
X94930804Y-84923328D01*
X94940531Y-84969948D01*
X94931970Y-85016796D01*
X94874665Y-85162807D01*
X94814616Y-85425899D01*
X94794450Y-85695000D01*
X94814616Y-85964100D01*
X94814617Y-85964103D01*
X94874666Y-86227195D01*
X94973257Y-86478398D01*
X95108185Y-86712102D01*
X95276439Y-86923085D01*
X95474259Y-87106635D01*
X95697226Y-87258651D01*
X95940359Y-87375738D01*
X96198228Y-87455280D01*
X96465071Y-87495500D01*
X96734929Y-87495500D01*
X97001772Y-87455280D01*
X97259641Y-87375738D01*
X97502775Y-87258651D01*
X97725741Y-87106635D01*
X97923561Y-86923085D01*
X98091815Y-86712102D01*
X98226743Y-86478398D01*
X98325334Y-86227195D01*
X98385383Y-85964103D01*
X98405549Y-85695000D01*
X98385383Y-85425897D01*
X98325334Y-85162805D01*
X98226743Y-84911602D01*
X98091815Y-84677898D01*
X97923561Y-84466915D01*
X97923560Y-84466914D01*
X97725743Y-84283366D01*
X97668205Y-84244137D01*
X97502775Y-84131349D01*
X97259641Y-84014262D01*
X97180098Y-83989726D01*
X97001771Y-83934719D01*
X96734929Y-83894500D01*
X96465071Y-83894500D01*
X96198228Y-83934719D01*
X95940356Y-84014263D01*
X95927492Y-84020458D01*
X95878327Y-84032651D01*
X95828388Y-84024166D01*
X95786010Y-83996419D01*
X93761819Y-81972228D01*
X93734939Y-81932000D01*
X93725500Y-81884547D01*
X93725500Y-80865000D01*
X94800000Y-80865000D01*
X94800000Y-81962824D01*
X94806402Y-82022375D01*
X94856647Y-82157089D01*
X94942811Y-82272188D01*
X95057910Y-82358352D01*
X95192624Y-82408597D01*
X95252176Y-82415000D01*
X96350000Y-82415000D01*
X96350000Y-80865000D01*
X96850000Y-80865000D01*
X96850000Y-82415000D01*
X97947824Y-82415000D01*
X98007375Y-82408597D01*
X98142089Y-82358352D01*
X98257188Y-82272188D01*
X98343352Y-82157089D01*
X98393597Y-82022375D01*
X98400000Y-81962824D01*
X98400000Y-80865000D01*
X96850000Y-80865000D01*
X96350000Y-80865000D01*
X94800000Y-80865000D01*
X93725500Y-80865000D01*
X93725500Y-80365000D01*
X94800000Y-80365000D01*
X96350000Y-80365000D01*
X96350000Y-78815000D01*
X96850000Y-78815000D01*
X96850000Y-80365000D01*
X98400000Y-80365000D01*
X98400000Y-79267176D01*
X98393597Y-79207624D01*
X98343352Y-79072910D01*
X98257188Y-78957811D01*
X98142089Y-78871647D01*
X98007375Y-78821402D01*
X97947824Y-78815000D01*
X96850000Y-78815000D01*
X96350000Y-78815000D01*
X95252176Y-78815000D01*
X95192624Y-78821402D01*
X95057910Y-78871647D01*
X94942811Y-78957811D01*
X94856647Y-79072910D01*
X94806402Y-79207624D01*
X94800000Y-79267176D01*
X94800000Y-80365000D01*
X93725500Y-80365000D01*
X93725500Y-72699999D01*
X94314608Y-72699999D01*
X94334136Y-72923203D01*
X94392128Y-73139631D01*
X94405550Y-73168414D01*
X94486819Y-73342696D01*
X94615333Y-73526233D01*
X94773767Y-73684667D01*
X94957304Y-73813181D01*
X95160370Y-73907872D01*
X95376794Y-73965863D01*
X95600000Y-73985391D01*
X95823206Y-73965863D01*
X96039630Y-73907872D01*
X96242696Y-73813181D01*
X96426233Y-73684667D01*
X96584667Y-73526233D01*
X96713181Y-73342696D01*
X96807872Y-73139630D01*
X96865863Y-72923206D01*
X96885391Y-72700000D01*
X96865863Y-72476794D01*
X96850988Y-72421280D01*
X96850988Y-72357094D01*
X96883080Y-72301508D01*
X101934589Y-67250000D01*
X104506128Y-67250000D01*
X104558733Y-67446326D01*
X104654865Y-67652480D01*
X104785341Y-67838819D01*
X104946180Y-67999658D01*
X105132519Y-68130134D01*
X105338673Y-68226266D01*
X105534999Y-68278871D01*
X105535000Y-68278872D01*
X105535000Y-67250000D01*
X106035000Y-67250000D01*
X106035000Y-68278871D01*
X106231326Y-68226266D01*
X106437480Y-68130134D01*
X106623819Y-67999658D01*
X106784658Y-67838819D01*
X106915135Y-67652479D01*
X106942618Y-67593543D01*
X106988375Y-67541367D01*
X107055000Y-67521947D01*
X107121625Y-67541367D01*
X107167382Y-67593543D01*
X107194864Y-67652479D01*
X107325341Y-67838819D01*
X107486180Y-67999658D01*
X107672519Y-68130134D01*
X107878673Y-68226266D01*
X108074999Y-68278871D01*
X108075000Y-68278872D01*
X108075000Y-67250000D01*
X108575000Y-67250000D01*
X108575000Y-68278871D01*
X108771326Y-68226266D01*
X108977480Y-68130134D01*
X109163819Y-67999658D01*
X109324658Y-67838819D01*
X109455135Y-67652479D01*
X109482618Y-67593543D01*
X109528375Y-67541367D01*
X109595000Y-67521947D01*
X109661625Y-67541367D01*
X109707382Y-67593543D01*
X109734864Y-67652479D01*
X109865341Y-67838819D01*
X110026180Y-67999658D01*
X110212519Y-68130134D01*
X110418673Y-68226266D01*
X110614999Y-68278871D01*
X110615000Y-68278872D01*
X110615000Y-67250000D01*
X111115000Y-67250000D01*
X111115000Y-68278871D01*
X111311326Y-68226266D01*
X111517480Y-68130134D01*
X111703819Y-67999658D01*
X111864658Y-67838819D01*
X111995135Y-67652479D01*
X112022618Y-67593543D01*
X112068375Y-67541367D01*
X112135000Y-67521947D01*
X112201625Y-67541367D01*
X112247382Y-67593543D01*
X112274864Y-67652479D01*
X112405341Y-67838819D01*
X112566180Y-67999658D01*
X112752519Y-68130134D01*
X112958673Y-68226266D01*
X113154999Y-68278871D01*
X113155000Y-68278872D01*
X113155000Y-67250000D01*
X113655000Y-67250000D01*
X113655000Y-68278871D01*
X113851326Y-68226266D01*
X114057480Y-68130134D01*
X114243819Y-67999658D01*
X114404658Y-67838819D01*
X114535135Y-67652479D01*
X114562618Y-67593543D01*
X114608375Y-67541367D01*
X114675000Y-67521947D01*
X114741625Y-67541367D01*
X114787382Y-67593543D01*
X114814864Y-67652479D01*
X114945341Y-67838819D01*
X115106180Y-67999658D01*
X115292519Y-68130134D01*
X115498673Y-68226266D01*
X115694999Y-68278871D01*
X115695000Y-68278872D01*
X115695000Y-67250000D01*
X113655000Y-67250000D01*
X113155000Y-67250000D01*
X111115000Y-67250000D01*
X110615000Y-67250000D01*
X108575000Y-67250000D01*
X108075000Y-67250000D01*
X106035000Y-67250000D01*
X105535000Y-67250000D01*
X104506128Y-67250000D01*
X101934589Y-67250000D01*
X102647770Y-66536819D01*
X102687999Y-66509939D01*
X102735452Y-66500500D01*
X104411381Y-66500500D01*
X104466225Y-66513288D01*
X104509757Y-66549014D01*
X104532998Y-66600309D01*
X104531156Y-66656594D01*
X104506128Y-66749999D01*
X104506128Y-66750000D01*
X116071000Y-66750000D01*
X116133000Y-66766613D01*
X116178387Y-66812000D01*
X116195000Y-66874000D01*
X116195000Y-68278871D01*
X116391326Y-68226266D01*
X116597480Y-68130134D01*
X116783819Y-67999658D01*
X116944658Y-67838819D01*
X117075135Y-67652479D01*
X117102342Y-67594135D01*
X117148098Y-67541959D01*
X117214723Y-67522539D01*
X117281348Y-67541958D01*
X117327106Y-67594133D01*
X117354433Y-67652736D01*
X117484953Y-67839140D01*
X117645859Y-68000046D01*
X117832264Y-68130567D01*
X117832265Y-68130567D01*
X117832266Y-68130568D01*
X118038504Y-68226739D01*
X118258308Y-68285635D01*
X118485000Y-68305468D01*
X118711692Y-68285635D01*
X118931496Y-68226739D01*
X119137734Y-68130568D01*
X119324139Y-68000047D01*
X119485047Y-67839139D01*
X119502273Y-67814536D01*
X119547113Y-67775400D01*
X119605027Y-67761666D01*
X119662669Y-67776499D01*
X119706758Y-67816483D01*
X119727138Y-67872405D01*
X119730909Y-67907484D01*
X119756056Y-67974906D01*
X119781204Y-68042331D01*
X119867454Y-68157546D01*
X119982669Y-68243796D01*
X120117517Y-68294091D01*
X120177127Y-68300500D01*
X121872872Y-68300499D01*
X121932483Y-68294091D01*
X122067331Y-68243796D01*
X122182546Y-68157546D01*
X122268796Y-68042331D01*
X122319091Y-67907483D01*
X122325500Y-67847873D01*
X122325499Y-66152128D01*
X122319091Y-66092517D01*
X122268796Y-65957669D01*
X122182546Y-65842454D01*
X122067331Y-65756204D01*
X121932483Y-65705909D01*
X121872873Y-65699500D01*
X121872869Y-65699500D01*
X120177130Y-65699500D01*
X120117515Y-65705909D01*
X119982669Y-65756204D01*
X119867454Y-65842454D01*
X119781204Y-65957668D01*
X119730909Y-66092516D01*
X119727138Y-66127593D01*
X119706759Y-66183515D01*
X119662670Y-66223498D01*
X119605029Y-66238332D01*
X119547116Y-66224599D01*
X119502273Y-66185462D01*
X119485044Y-66160857D01*
X119324140Y-65999953D01*
X119137735Y-65869432D01*
X118931497Y-65773261D01*
X118711689Y-65714364D01*
X118485000Y-65694531D01*
X118258307Y-65714364D01*
X118189950Y-65732680D01*
X118125764Y-65732680D01*
X118070177Y-65700586D01*
X117860802Y-65491211D01*
X117847906Y-65475113D01*
X117796775Y-65427098D01*
X117793978Y-65424387D01*
X117774470Y-65404879D01*
X117771290Y-65402412D01*
X117762424Y-65394839D01*
X117730582Y-65364938D01*
X117713024Y-65355285D01*
X117696764Y-65344604D01*
X117680936Y-65332327D01*
X117640851Y-65314980D01*
X117630361Y-65309841D01*
X117592091Y-65288802D01*
X117572691Y-65283821D01*
X117554284Y-65277519D01*
X117535897Y-65269562D01*
X117492758Y-65262729D01*
X117481324Y-65260361D01*
X117439019Y-65249500D01*
X117418984Y-65249500D01*
X117399586Y-65247973D01*
X117392162Y-65246797D01*
X117379805Y-65244840D01*
X117379804Y-65244840D01*
X117354468Y-65247235D01*
X117336325Y-65248950D01*
X117324656Y-65249500D01*
X102507744Y-65249500D01*
X102487236Y-65247235D01*
X102417113Y-65249439D01*
X102413219Y-65249500D01*
X102385650Y-65249500D01*
X102381671Y-65250002D01*
X102370041Y-65250917D01*
X102326372Y-65252289D01*
X102307128Y-65257880D01*
X102288084Y-65261824D01*
X102268208Y-65264335D01*
X102227600Y-65280413D01*
X102216554Y-65284194D01*
X102174610Y-65296382D01*
X102174607Y-65296383D01*
X102157365Y-65306579D01*
X102139904Y-65315133D01*
X102121267Y-65322512D01*
X102085931Y-65348185D01*
X102076174Y-65354595D01*
X102038580Y-65376829D01*
X102024413Y-65390996D01*
X102009624Y-65403626D01*
X101993413Y-65415404D01*
X101965572Y-65449058D01*
X101957711Y-65457697D01*
X99594102Y-67821304D01*
X99542675Y-67852205D01*
X99482760Y-67855345D01*
X99428385Y-67829989D01*
X99392278Y-67782073D01*
X99382893Y-67722814D01*
X99384889Y-67699998D01*
X99365369Y-67476883D01*
X99307400Y-67260540D01*
X99212747Y-67057558D01*
X99164663Y-66988888D01*
X98100000Y-68053553D01*
X97388888Y-68764664D01*
X97457557Y-68812747D01*
X97660540Y-68907400D01*
X97876883Y-68965369D01*
X98099998Y-68984889D01*
X98122814Y-68982893D01*
X98182073Y-68992278D01*
X98229989Y-69028385D01*
X98255345Y-69082760D01*
X98252205Y-69142675D01*
X98221304Y-69194102D01*
X95998491Y-71416916D01*
X95942904Y-71449010D01*
X95878718Y-71449010D01*
X95823207Y-71434136D01*
X95600000Y-71414608D01*
X95376796Y-71434136D01*
X95160368Y-71492128D01*
X94957304Y-71586819D01*
X94773766Y-71715333D01*
X94615333Y-71873766D01*
X94486819Y-72057304D01*
X94392128Y-72260368D01*
X94334136Y-72476796D01*
X94314608Y-72699999D01*
X93725500Y-72699999D01*
X93725500Y-69104499D01*
X93742113Y-69042499D01*
X93787500Y-68997112D01*
X93849500Y-68980499D01*
X93927870Y-68980499D01*
X93927872Y-68980499D01*
X93987483Y-68974091D01*
X94122331Y-68923796D01*
X94237546Y-68837546D01*
X94323796Y-68722331D01*
X94374091Y-68587483D01*
X94380500Y-68527873D01*
X94380499Y-67700000D01*
X96815110Y-67700000D01*
X96834630Y-67923116D01*
X96892599Y-68139459D01*
X96987252Y-68342442D01*
X97035334Y-68411111D01*
X97746446Y-67699999D01*
X97746446Y-67699998D01*
X97035335Y-66988887D01*
X97035333Y-66988888D01*
X96987252Y-67057555D01*
X96892599Y-67260539D01*
X96834630Y-67476883D01*
X96815110Y-67700000D01*
X94380499Y-67700000D01*
X94380499Y-66872128D01*
X94374091Y-66812517D01*
X94323796Y-66677669D01*
X94292104Y-66635334D01*
X97388887Y-66635334D01*
X98100000Y-67346446D01*
X98100001Y-67346446D01*
X98811111Y-66635334D01*
X98742442Y-66587252D01*
X98539459Y-66492599D01*
X98323116Y-66434630D01*
X98100000Y-66415110D01*
X97876883Y-66434630D01*
X97660539Y-66492599D01*
X97457555Y-66587252D01*
X97388888Y-66635333D01*
X97388887Y-66635334D01*
X94292104Y-66635334D01*
X94237546Y-66562454D01*
X94122331Y-66476204D01*
X93987483Y-66425909D01*
X93927873Y-66419500D01*
X93927869Y-66419500D01*
X92272130Y-66419500D01*
X92212515Y-66425909D01*
X92077669Y-66476204D01*
X91962454Y-66562454D01*
X91876204Y-66677668D01*
X91825909Y-66812515D01*
X91825909Y-66812517D01*
X91821812Y-66850628D01*
X91819500Y-66872130D01*
X91819500Y-68527869D01*
X87994003Y-68527869D01*
X88000305Y-66851586D01*
X88000500Y-66850628D01*
X88000500Y-66802872D01*
X88000632Y-66797146D01*
X88001734Y-66773308D01*
X88008487Y-66627240D01*
X88009810Y-66600309D01*
X88019102Y-66411156D01*
X88020137Y-66400165D01*
X88046483Y-66211294D01*
X88075630Y-66014811D01*
X88077571Y-66004671D01*
X88121938Y-65816037D01*
X88122250Y-65814748D01*
X88169606Y-65625696D01*
X88172305Y-65616462D01*
X88234311Y-65431462D01*
X88235080Y-65429241D01*
X88300182Y-65247295D01*
X88303467Y-65239064D01*
X88382589Y-65059870D01*
X88383888Y-65057027D01*
X88466157Y-64883085D01*
X88469895Y-64875817D01*
X88565437Y-64704285D01*
X88567316Y-64701035D01*
X88666056Y-64536296D01*
X88670047Y-64530075D01*
X88781155Y-64367878D01*
X88783779Y-64364195D01*
X88898002Y-64210183D01*
X88902162Y-64204885D01*
X89027827Y-64053552D01*
X89031301Y-64049548D01*
X89159985Y-63907568D01*
X89164102Y-63903244D01*
X89303244Y-63764102D01*
X89307568Y-63759985D01*
X89449548Y-63631301D01*
X89453552Y-63627827D01*
X89604885Y-63502162D01*
X89610183Y-63498002D01*
X89764195Y-63383779D01*
X89767878Y-63381155D01*
X89930075Y-63270047D01*
X89936296Y-63266056D01*
X90101035Y-63167316D01*
X90104285Y-63165437D01*
X90275817Y-63069895D01*
X90283085Y-63066157D01*
X90457027Y-62983888D01*
X90459870Y-62982589D01*
X90639064Y-62903467D01*
X90647295Y-62900182D01*
X90829241Y-62835080D01*
X90831462Y-62834311D01*
X91016462Y-62772305D01*
X91025696Y-62769606D01*
X91214748Y-62722250D01*
X91216037Y-62721938D01*
X91404671Y-62677571D01*
X91414811Y-62675630D01*
X91611294Y-62646483D01*
X91800165Y-62620137D01*
X91811153Y-62619102D01*
X92027017Y-62608497D01*
X92197021Y-62600637D01*
X92202971Y-62600506D01*
X132048296Y-62687393D01*
G37*
%TD.AperFunction*%
%TD*%
M02*
